<svg id="Layer_1" data-name="Layer 1" xmlns="http://www.w3.org/2000/svg" viewBox="0 0 473.87 158.83"><defs><style>.cls-1{fill:#231f20;}.cls-2{fill:#ed2024;}.cls-3{font-size:48.24px;font-family:MyriadPro-Regular, Myriad Pro;fill:#64748b;}.cls-4{letter-spacing:-0.04em;}.cls-5{letter-spacing:0em;}</style></defs><path class="cls-1" d="M84.76,109.88a2.4,2.4,0,1,1-2.38-2.71A2.56,2.56,0,0,1,84.76,109.88Z"/><polygon class="cls-2" points="0 102.02 0.09 21.51 16.43 21.51 42.68 52.41 112.34 0 42.21 76.62 15.73 46.2 15.6 85.43 0 102.02"/><path class="cls-1" d="M45.92,43.65l25.5-19.1a.48.48,0,0,0,.11-.61h0a.38.38,0,0,0-.55-.12l-25.55,19a.52.52,0,0,0,0,.77h0A.4.4,0,0,0,45.92,43.65Z"/><polygon class="cls-1" points="39.61 84.7 25 69.39 25 90.22 2.44 112.62 26.73 91.93 26.63 73.98 39.61 84.7"/><ellipse class="cls-1" cx="72.29" cy="23.44" rx="2.38" ry="2.71"/><ellipse class="cls-1" cx="100.56" cy="93.61" rx="2.38" ry="2.71"/><ellipse class="cls-1" cx="95.23" cy="51.01" rx="2.38" ry="2.71"/><ellipse class="cls-1" cx="107.99" cy="22.39" rx="2.38" ry="2.71"/><ellipse class="cls-1" cx="60.13" cy="88.33" rx="2.38" ry="2.71"/><path class="cls-1" d="M30.71,98.5,107.5,21.64a.64.64,0,0,1,1.06.55V94.73a.78.78,0,0,1-.24.57L90,111.54a.64.64,0,0,1-1-.56l-.39-24a.78.78,0,0,1,.15-.48l2.25-3a3.43,3.43,0,0,0,.66-2.07l-.12-14.19a.68.68,0,0,1,.64-.74h.53a.69.69,0,0,1,.64.72L93.4,82.3a3.39,3.39,0,0,1-.3,1.16l-2.86,4a.8.8,0,0,0-.13.43l.37,19.72c0,.6.25.85.67.47l15.28-13.46a.76.76,0,0,0,.25-.58l-.12-67.29a.63.63,0,0,0-1.06-.54L41.16,90.51c-.33.33-1.22,1.14-1.57,1.44l-8.25,7.34C30.68,99.85,30.09,99.11,30.71,98.5Z"/><path class="cls-1" d="M100.59,61.89a.63.63,0,0,1,.59.68l0,26.91v3.63a.63.63,0,0,1-.67.67l-.3,0a.65.65,0,0,1-.52-.67V62.57a.64.64,0,0,1,.59-.68Z"/><path class="cls-1" d="M82.46,77.66a.65.65,0,0,1,.6.68l0,26.91v3.63a.63.63,0,0,1-.68.67l-.3,0a.68.68,0,0,1-.52-.68V78.34a.65.65,0,0,1,.6-.68Z"/><path class="cls-1" d="M61.43,87.9l34.1-36a.74.74,0,0,0,0-.94h0a.54.54,0,0,0-.85-.06L60.52,86.82a.73.73,0,0,0,.06,1.05l.11.09A.53.53,0,0,0,61.43,87.9Z"/><ellipse class="cls-1" cx="78.03" cy="69.39" rx="2.38" ry="2.71"/><path class="cls-1" d="M119,21.1h14.82V60.44q0,9.38.55,12.14a11.69,11.69,0,0,0,4.53,7.16q3.59,2.7,9.79,2.7t9.51-2.55a10,10,0,0,0,3.85-6.27,79.82,79.82,0,0,0,.66-12.34V21.1h14.81V59.25q0,13.08-1.2,18.49a20.33,20.33,0,0,1-4.43,9.11,22.37,22.37,0,0,1-8.63,5.93Q157.86,95,149.16,95q-10.51,0-15.95-2.4a22.85,22.85,0,0,1-8.58-6.25,20,20,0,0,1-4.16-8Q119,72,119,59.85Z"/><path class="cls-1" d="M227.31,67V54.79h31.94V83.73q-4.67,4.47-13.5,7.86A49.57,49.57,0,0,1,227.86,95a40.5,40.5,0,0,1-20.08-4.78,30.52,30.52,0,0,1-12.86-13.68,43.83,43.83,0,0,1-4.31-19.35A41.43,41.43,0,0,1,195.42,37a32.22,32.22,0,0,1,14.06-13.53q7.07-3.62,17.58-3.61,13.66,0,21.35,5.67a25.55,25.55,0,0,1,9.88,15.68l-14.71,2.73a15.4,15.4,0,0,0-5.84-8.45,17.76,17.76,0,0,0-10.68-3.1q-9.72,0-15.45,6.1t-5.73,18.09q0,12.93,5.81,19.4t15.22,6.46a25.84,25.84,0,0,0,9.33-1.8,32.28,32.28,0,0,0,8-4.39V67Z"/><path class="cls-1" d="M273.06,93.74V21.1h14.42l30,48.51V21.1h13.76V93.74H316.42L286.83,46.37V93.74Z"/><path class="cls-1" d="M347,93.74V21.1h54.42V33.38h-39.6V49.49h36.85V61.73H361.77V81.5h41V93.74Z"/><path class="cls-1" d="M415.34,93.74V21.1h54.42V33.38h-39.6V49.49H467V61.73H430.16V81.5h41V93.74Z"/><text class="cls-3" transform="translate(212.4 146.77) scale(1.02 1)">IT SO<tspan class="cls-4" x="102.74" y="0">L</tspan><tspan class="cls-5" x="123.77" y="0">UTION</tspan></text></svg>
