<?xml version="1.0" encoding="UTF-8"?>
<svg version="1.1" xmlns="http://www.w3.org/2000/svg" width="1979" height="706">
<path d="M0 0 C20.13 0 40.26 0 61 0 C67.38992728 9.87534216 73.74878762 19.71805881 79.875 29.75 C81.2562957 32.00273584 82.63780893 34.25533831 84.01953125 36.5078125 C85.02814209 38.15378418 85.02814209 38.15378418 86.05712891 39.83300781 C88.8815488 44.4369755 91.71939034 49.0325557 94.5625 53.625 C95.08400635 54.46748291 95.6055127 55.30996582 96.14282227 56.17797852 C100.18043904 62.69304078 104.24502496 69.19105116 108.3125 75.6875 C114.9805496 86.33894767 121.57393794 97.03520955 128.15234375 107.7421875 C133.22211636 115.99272156 138.32202498 124.22451306 143.42333984 132.45556641 C146.11708555 136.80276643 148.80839917 141.15147177 151.5 145.5 C152.58332213 147.25000693 153.66665546 149.00000694 154.75 150.75 C164.5 166.5 174.25 182.25 184 198 C184.33 132.66 184.66 67.32 185 0 C204.14 0 223.28 0 243 0 C243 100.32 243 200.64 243 304 C222.21 304 201.42 304 180 304 C176.04 297.4 172.08 290.8 168 284 C165.74727679 280.40133996 163.48908647 276.81616642 161.1875 273.25 C160.00177219 271.39897018 158.81690753 269.54738723 157.6328125 267.6953125 C157.03629883 266.76235352 156.43978516 265.82939453 155.82519531 264.86816406 C152.70917917 259.97156726 149.63499277 255.04898451 146.5625 250.125 C145.62893677 248.62888184 145.62893677 248.62888184 144.67651367 247.10253906 C143.41448094 245.07924663 142.15268121 243.05580884 140.89111328 241.03222656 C137.76456576 236.01909459 134.63199839 231.00972757 131.5 226 C130.24997074 224.00001829 128.99997074 222.00001828 127.75 220 C127.13125 219.01 126.5125 218.02 125.875 217 C92.4375 163.5 92.4375 163.5 59 110 C58.67 174.02 58.34 238.04 58 304 C38.86 304 19.72 304 0 304 C0 203.68 0 103.36 0 0 Z " fill="#FFFFFF" transform="translate(1138,88)"/>
<path d="M0 0 C1.21623047 1.01707031 1.21623047 1.01707031 2.45703125 2.0546875 C18.65952541 16.04209413 31.67146533 36.77499227 36 58 C36.01759324 59.66657381 36.01962471 61.33344888 36 63 C30.47265459 64.08646654 24.94488552 65.17074464 19.41674805 66.25317383 C17.54424017 66.62011554 15.67184046 66.98760979 13.79956055 67.35571289 C8.39747565 68.41758691 2.99355962 69.46904479 -2.41375732 70.50396729 C-4.11758606 70.83075595 -5.8209307 71.1600804 -7.52374268 71.49212646 C-9.85918858 71.94569443 -12.19664765 72.38675547 -14.53515625 72.82421875 C-15.56376015 73.02722343 -15.56376015 73.02722343 -16.61314392 73.23432922 C-20.33047922 73.91395228 -23.39013689 74.25149145 -27 73 C-28.30078125 70.4453125 -28.30078125 70.4453125 -29.3125 67.125 C-34.80547485 51.45285612 -46.52847633 40.56351411 -61 33 C-81.93957087 24.02968954 -107.52728402 24.59035577 -128.8125 32.25 C-139.68006122 36.80299323 -148.66213587 42.67668712 -157 51 C-157.62519531 51.61359375 -158.25039063 52.2271875 -158.89453125 52.859375 C-180.30347145 75.47649467 -181.71756782 108.94524805 -181.140625 138.27197266 C-180.12495786 165.19773177 -172.18391501 191.48589713 -153 211 C-152.38511719 211.62777344 -151.77023437 212.25554687 -151.13671875 212.90234375 C-135.27771865 227.87840166 -112.95671927 233.52819076 -91.62255859 232.97631836 C-70.18385488 231.95296179 -49.17026383 224.22895705 -31 213 C-30.12590233 212.53248573 -30.12590233 212.53248573 -29.23414612 212.05552673 C-25.45206529 209.8055859 -25.45206529 209.8055859 -23.35047913 206.08674622 C-23.09393474 203.76694333 -23.05591518 201.53257999 -23.09765625 199.19921875 C-23.07874329 198.08625427 -23.07874329 198.08625427 -23.05944824 196.95080566 C-23.0227257 194.19661506 -23.04612869 191.44188676 -23.0625 188.6875 C-23.041875 182.520625 -23.02125 176.35375 -23 170 C-46.43 170 -69.86 170 -94 170 C-94 152.84 -94 135.68 -94 118 C-49.78 118 -5.56 118 40 118 C40.433125 148.1021875 40.433125 148.1021875 40.875 178.8125 C41.00245605 185.1338208 41.12991211 191.4551416 41.26123047 197.96801758 C41.32446289 205.72595215 41.32446289 205.72595215 41.33621216 209.36528015 C41.35762133 211.89098194 41.40668151 214.41654615 41.47805786 216.94132996 C42.07979768 239.35990031 42.07979768 239.35990031 37.04278564 245.01107788 C34.22644697 247.50329607 31.23416611 249.36968313 27.87538052 251.04283905 C24.70165392 252.66265281 21.79130936 254.67409602 18.8125 256.625 C-27.08466844 283.97003859 -84.4623983 294.9107165 -136.76123047 282.30639648 C-140.54500091 281.31570674 -144.27804817 280.20109776 -148 279 C-148.68707031 278.77973145 -149.37414062 278.55946289 -150.08203125 278.33251953 C-184.66576105 266.95063714 -211.63100395 243.93066296 -228.28125 211.62890625 C-250.42481513 167.38326924 -252.69881908 114.81317624 -237.73046875 67.94921875 C-232.08776132 51.27919153 -223.52293447 35.30667046 -212 22 C-211.3507959 21.23768066 -211.3507959 21.23768066 -210.68847656 20.45996094 C-186.96488255 -7.24933551 -152.77532144 -23.7484371 -116.52392578 -26.7890625 C-76.7235831 -29.17145796 -31.78404365 -27.27607336 0 0 Z " fill="#FFFFFF" transform="translate(1041,110)"/>
<path d="M0 0 C0 3 0 3 -1.28515625 4.54296875 C-1.87167969 5.08566406 -2.45820313 5.62835938 -3.0625 6.1875 C-5.56261338 8.58302696 -7.93217377 10.99748939 -10.1875 13.625 C-13.30334572 17.23575634 -16.50978143 20.75132442 -19.75 24.25 C-20.26578613 24.80695557 -20.78157227 25.36391113 -21.31298828 25.93774414 C-22.36272657 27.07102505 -23.41253133 28.20424439 -24.46240234 29.33740234 C-26.83708074 31.90513176 -29.20048145 34.4831282 -31.5625 37.0625 C-32.01206055 37.55331055 -32.46162109 38.04412109 -32.92480469 38.54980469 C-33.83030793 39.53851282 -34.73574434 40.52728217 -35.64111328 41.51611328 C-37.92642496 44.01164407 -40.2132958 46.50574527 -42.5 49 C-43.41667404 49.99999325 -44.3333407 50.99999324 -45.25 52 C-50.75 58 -50.75 58 -52.12548828 59.50048828 C-53.04058633 60.49880661 -53.95562555 61.49717886 -54.87060547 62.49560547 C-57.18578852 65.0217842 -59.5020401 67.54696832 -61.8203125 70.0703125 C-66.04766751 74.67349765 -70.26526083 79.28413776 -74.4375 83.9375 C-78.89643915 88.90512383 -83.42438331 93.80683252 -87.95703125 98.70703125 C-90.83394762 101.81782841 -93.70049617 104.93798345 -96.5625 108.0625 C-97.23708252 108.79895752 -97.23708252 108.79895752 -97.92529297 109.55029297 C-98.83062602 110.53884515 -99.73589963 111.52745177 -100.64111328 112.51611328 C-102.46779417 114.51082518 -104.29549705 116.50459907 -106.12329102 118.49829102 C-107.03923222 119.49739624 -107.95508545 120.49658211 -108.87084961 121.49584961 C-111.18593628 124.02196074 -113.50211788 126.54705298 -115.8203125 129.0703125 C-120.04766751 133.67349765 -124.26526083 138.28413776 -128.4375 142.9375 C-132.89643915 147.90512383 -137.42438331 152.80683252 -141.95703125 157.70703125 C-144.83394762 160.81782841 -147.70049617 163.93798345 -150.5625 167.0625 C-151.23708252 167.79895752 -151.23708252 167.79895752 -151.92529297 168.55029297 C-152.83062602 169.53884515 -153.73589963 170.52745177 -154.64111328 171.51611328 C-156.46779417 173.51082518 -158.29549705 175.50459907 -160.12329102 177.49829102 C-161.03923222 178.49739624 -161.95508545 179.49658211 -162.87084961 180.49584961 C-165.18593628 183.02196074 -167.50211788 185.54705298 -169.8203125 188.0703125 C-174.04766751 192.67349765 -178.26526083 197.28413776 -182.4375 201.9375 C-186.89643915 206.90512383 -191.42438331 211.80683252 -195.95703125 216.70703125 C-198.83394762 219.81782841 -201.70049617 222.93798345 -204.5625 226.0625 C-205.23708252 226.79895752 -205.23708252 226.79895752 -205.92529297 227.55029297 C-206.83062602 228.53884515 -207.73589963 229.52745177 -208.64111328 230.51611328 C-210.46779417 232.51082518 -212.29549705 234.50459907 -214.12329102 236.49829102 C-215.03923222 237.49739624 -215.95508545 238.49658211 -216.87084961 239.49584961 C-219.18593628 242.02196074 -221.50211788 244.54705298 -223.8203125 247.0703125 C-228.04766751 251.67349765 -232.26526083 256.28413776 -236.4375 260.9375 C-240.89643915 265.90512383 -245.42438331 270.80683252 -249.95703125 275.70703125 C-252.83394762 278.81782841 -255.70049617 281.93798345 -258.5625 285.0625 C-259.01222168 285.55347168 -259.46194336 286.04444336 -259.92529297 286.55029297 C-260.83062602 287.53884515 -261.73589963 288.52745177 -262.64111328 289.51611328 C-264.46818246 291.51124919 -266.29625602 293.50546309 -268.12451172 295.49951172 C-269.03653136 296.49441281 -269.94831786 297.48952768 -270.85986328 298.48486328 C-273.23373484 301.07647441 -275.61173161 303.66412827 -277.99609375 306.24609375 C-278.48851562 306.78041016 -278.9809375 307.31472656 -279.48828125 307.86523438 C-280.85439783 309.34734199 -282.2220707 310.82801468 -283.58984375 312.30859375 C-285.82579017 314.80546099 -287.93545105 317.36063464 -290 320 C-292.88699029 319.66490291 -293.90744277 319.09778223 -295.9375 316.953125 C-296.618125 316.06109375 -297.29875 315.1690625 -298 314.25 C-301.49759034 309.80898069 -305.12688151 305.61614732 -309 301.5 C-313.45992086 296.74027608 -317.63806889 291.83520893 -321.72265625 286.74609375 C-324.21826469 283.73680948 -326.83765143 280.86061346 -329.5 278 C-333.76920779 273.41242561 -337.75758739 268.66556996 -341.6875 263.78125 C-344.1997101 260.75980812 -346.82400827 257.87558227 -349.5 255 C-353.76918152 250.41239887 -357.75758517 245.66557272 -361.6875 240.78125 C-364.1997101 237.75980812 -366.82400827 234.87558227 -369.5 232 C-372.9741715 228.26670522 -376.30068494 224.47629157 -379.5 220.5 C-383.60300303 215.40076422 -387.95916453 210.60662632 -392.421875 205.82421875 C-395.04580097 202.94982712 -397.51772476 199.99660889 -400 197 C-400.87354657 216.79290379 -401.03845438 236.54846118 -400.87139857 256.35883939 C-400.83178238 261.16090882 -400.80587126 265.96290644 -400.78860474 270.7651062 C-400.78483426 271.8007369 -400.78483426 271.8007369 -400.78098762 272.85728943 C-400.77107625 275.67259849 -400.76171783 278.48790749 -400.75379539 281.30322289 C-400.73145158 289.21411352 -400.68527158 297.12329495 -400.5715332 305.03344727 C-400.47979293 311.42537993 -400.43826553 317.81547002 -400.45439845 324.20807046 C-400.46105843 327.55968103 -400.43640404 330.90349866 -400.36514854 334.25487709 C-399.90206945 357.05466196 -399.90206945 357.05466196 -406.92767811 364.66662121 C-409.30604017 366.87723697 -411.77206086 368.87315867 -414.39879799 370.77997398 C-416.53052715 372.4042319 -418.19044158 374.300334 -419.875 376.375 C-422.75494657 379.77594193 -425.86098002 382.87846977 -429.03515625 386.00390625 C-430.92230744 387.92107177 -432.68685375 389.89575322 -434.4375 391.9375 C-437.00665271 394.92801716 -439.69317256 397.73116684 -442.5 400.5 C-445.9019628 403.85599033 -449.06607016 407.32484832 -452.171875 410.953125 C-454.9688328 414.08476152 -457.97452638 416.99621795 -460.984375 419.921875 C-463.04159392 421.94385057 -463.04159392 421.94385057 -464.640625 424.265625 C-465.08921875 424.83796875 -465.5378125 425.4103125 -466 426 C-466.66 426 -467.32 426 -468 426 C-468 315.12 -468 204.24 -468 90 C-444.9 90 -421.8 90 -398 90 C-392.27386274 96.29875098 -386.79036029 102.40836345 -381.47265625 108.9921875 C-378.58319725 112.50701125 -375.61321307 115.94413715 -372.625 119.375 C-368.07476541 124.59985633 -363.56319765 129.85315639 -359.09863281 135.15136719 C-355.71518052 139.16384184 -352.29899816 143.14710388 -348.875 147.125 C-345.38176144 151.18620876 -341.93551293 155.27518971 -338.5625 159.4375 C-334.46020051 164.48933717 -330.21298022 169.4030598 -325.93994141 174.31005859 C-321.95364274 178.8901847 -318.01282426 183.50550779 -314.10083008 188.14916992 C-311.20963391 191.57855639 -308.29486744 194.98637969 -305.36645508 198.3840332 C-300.10680849 204.48819807 -294.98305687 210.66663211 -290 217 C-283.47648527 212.78063546 -277.27149555 208.24808651 -271.125 203.5 C-264.30034275 198.26213585 -257.44256862 193.08057142 -250.5 188 C-242.87448068 182.4152924 -235.34715927 176.71118285 -227.8425293 170.96533203 C-222.04619071 166.53576655 -216.20046074 162.18184443 -210.3125 157.875 C-204.12743929 153.3488463 -198.03095953 148.72949347 -192 144 C-185.19759567 138.6655376 -178.29340214 133.49406186 -171.31640625 128.390625 C-165.32248822 123.99768833 -159.40040656 119.51759194 -153.5 115 C-146.88061574 109.93337075 -140.2249262 104.92570424 -133.5 100 C-124.82351464 93.64393818 -116.26688928 87.13779594 -107.72265625 80.60546875 C-103.25488956 77.19007431 -98.75975902 73.81418704 -94.25390625 70.44921875 C-90.70336496 67.78660107 -87.18188305 65.08607918 -83.65625 62.390625 C-75.2181676 55.94082638 -66.73396325 49.56609608 -58.16577148 43.2902832 C-52.22438594 38.92808946 -46.35311497 34.47976438 -40.5 30 C-27.15503837 19.78966159 -13.61257682 9.8499994 0 0 Z " fill="#ED1F24" transform="translate(468,0)"/>
<path d="M0 0 C74.91 0 149.82 0 227 0 C227 17.16 227 34.32 227 52 C172.55 52 118.1 52 62 52 C62 73.78 62 95.56 62 118 C112.82 118 163.64 118 216 118 C216 135.16 216 152.32 216 170 C165.18 170 114.36 170 62 170 C62 197.06 62 224.12 62 252 C118.43 252 174.86 252 233 252 C233 269.16 233 286.32 233 304 C156.11 304 79.22 304 0 304 C0 203.68 0 103.36 0 0 Z " fill="#FFFFFF" transform="translate(1731,88)"/>
<path d="M0 0 C74.91 0 149.82 0 227 0 C227 17.16 227 34.32 227 52 C172.55 52 118.1 52 62 52 C62 73.78 62 95.56 62 118 C112.82 118 163.64 118 216 118 C216 135.16 216 152.32 216 170 C165.18 170 114.36 170 62 170 C62 197.06 62 224.12 62 252 C118.43 252 174.86 252 233 252 C233 269.16 233 286.32 233 304 C156.11 304 79.22 304 0 304 C0 203.68 0 103.36 0 0 Z " fill="#FFFFFF" transform="translate(1446,88)"/>
<path d="M0 0 C20.79 0 41.58 0 63 0 C63.029729 8.96220703 63.029729 8.96220703 63.06005859 18.10546875 C63.12703704 37.87078035 63.20457777 57.63604017 63.28752708 77.40129089 C63.33755049 89.38209774 63.38399423 101.3628981 63.421875 113.34375 C63.45491883 123.7918675 63.49481764 134.23993305 63.54279006 144.68799305 C63.56793236 150.21503769 63.58974922 155.74204842 63.60334396 161.26913452 C63.61627648 166.48281317 63.63844876 171.69637478 63.66738319 176.9099884 C63.67637228 178.81252264 63.68212863 180.71507568 63.68421364 182.61763 C63.71052472 202.99908427 63.88517422 224.86279397 79.2890625 240.29296875 C93.8752272 252.63332714 112.79857196 256.03088574 131.4453125 254.75 C147.2454841 253.32926655 160.743538 248.96264092 171.2109375 236.47265625 C177.07888636 228.36258719 179.05215672 219.8287227 180 210 C180.12208029 208.75258892 180.12208029 208.75258892 180.24662685 207.47997761 C181.1275832 197.46325958 181.17358619 187.48661819 181.20532227 177.44018555 C181.21492015 175.49740398 181.2249313 173.55462442 181.23532104 171.61184692 C181.26216938 166.37519339 181.28328657 161.13853103 181.30332303 155.9018476 C181.32530759 150.41524667 181.35263482 144.92867232 181.37937927 139.4420929 C181.42913859 129.06920361 181.47413906 118.69629944 181.51740164 108.32338125 C181.56691797 96.50708386 181.62178236 84.69081316 181.67708123 72.87454164 C181.79064372 48.58305151 181.89683221 24.29153665 182 0 C202.79 0 223.58 0 245 0 C245.04541295 23.68145578 245.08214239 47.36287547 245.10362434 71.04436398 C245.11387062 82.04383355 245.12780117 93.04327385 245.15087891 104.04272461 C245.17101916 113.64679997 245.1837645 123.25085411 245.18817699 132.85495001 C245.19075005 137.92481564 245.19665284 142.9946206 245.21146011 148.06446648 C245.49230962 248.23813563 245.49230962 248.23813563 220 277 C219.47019531 277.61230469 218.94039062 278.22460938 218.39453125 278.85546875 C198.36364017 300.46904752 167.21383264 307.43009539 139 309 C101.39864309 310.25207722 62.32218192 308.413061 32.6875 282.5625 C31.10609716 281.06133201 29.54311682 279.54049692 28 278 C27.23042969 277.24203125 26.46085938 276.4840625 25.66796875 275.703125 C-0.63607983 248.27880178 -0.19007909 206.25682608 -0.11352539 170.62866211 C-0.11324251 168.75425722 -0.11340322 166.87985222 -0.1139679 165.00544739 C-0.11425192 159.97354675 -0.10841963 154.94167052 -0.10139394 149.9097755 C-0.09509409 144.63008295 -0.0945514 139.35038969 -0.09336853 134.07069397 C-0.09027461 124.0981184 -0.08208765 114.12555395 -0.07201904 104.15298325 C-0.06079732 92.7888406 -0.05533226 81.42469739 -0.05032361 70.06055057 C-0.03990318 46.70702616 -0.02158212 23.35351695 0 0 Z " fill="#FFFFFF" transform="translate(496,88)"/>
<path d="M0 0 C3.47681295 2.01329926 5.70512046 4.11536139 7 8 C7.39504158 12.81950724 7.462422 15.09167107 5.25 19.4375 C2.91236146 22.09981056 2.28631032 22.39935085 -1 23 C-0.99259545 23.9231337 -0.99259545 23.9231337 -0.98504132 24.86491656 C-0.69392828 61.36523422 -0.47097609 97.86537975 -0.33615072 134.36662124 C-0.31989214 138.75239137 -0.30306589 143.13815916 -0.28588867 147.52392578 C-0.28247864 148.39702818 -0.2790686 149.27013059 -0.27555523 150.16969064 C-0.21903565 164.29454373 -0.11656396 178.41870682 0.00298635 192.54315099 C0.12469173 207.04348499 0.19679222 221.54345842 0.22315043 236.0442822 C0.24096131 244.987694 0.29714193 253.92915543 0.40291407 262.87196657 C0.47180148 269.01010357 0.49236469 275.1472371 0.47551791 281.2857323 C0.46721459 284.82467056 0.47964291 288.36021008 0.54967117 291.89853859 C0.9694312 314.18878304 0.9694312 314.18878304 -3.84612465 320.27423859 C-6.91592872 323.41621278 -10.2802202 325.68544138 -14 328 C-15.42092653 329.2000705 -16.82468175 330.42182713 -18.1875 331.6875 C-18.79980469 332.21730469 -19.41210938 332.74710937 -20.04296875 333.29296875 C-22.3855915 335.33633431 -24.69273422 337.41680859 -27 339.5 C-32.32334693 344.29907792 -37.68863339 349.0407795 -43.15234375 353.6796875 C-50.27542239 359.73540575 -57.23378326 365.92423816 -64.078125 372.29296875 C-73.41509434 380.94339623 -73.41509434 380.94339623 -78 384 C-80.6875 383.625 -80.6875 383.625 -83 383 C-84.02821573 367.10870505 -84.30233815 351.21446393 -84.53222656 335.29516602 C-84.58236993 331.90765775 -84.63839429 328.5202453 -84.69335938 325.1328125 C-84.77854141 319.87870702 -84.84532119 314.62462136 -84.90112305 309.37011719 C-84.95285268 304.65400263 -85.05817391 299.94507209 -85.21801758 295.23144531 C-85.26787385 293.18555011 -85.31760532 291.13965186 -85.3671875 289.09375 C-85.41110123 288.19029846 -85.45501495 287.28684692 -85.5002594 286.35601807 C-85.67507816 276.62006474 -80.22983474 270.88100311 -74 264 C-72.89857657 260.69572971 -72.89267732 258.29471721 -72.91821289 254.81616211 C-72.92800926 252.90419289 -72.92800926 252.90419289 -72.93800354 250.95359802 C-72.94374453 250.2730731 -72.94948551 249.59254818 -72.95540047 248.89140129 C-72.97279054 246.76089157 -72.98308917 244.63045681 -72.99131775 242.49989319 C-73.01577699 236.44313466 -73.05143793 230.38647757 -73.09594727 224.32983398 C-73.12268476 220.62409188 -73.13975599 216.9184078 -73.15081596 213.21258736 C-73.15703529 211.79913749 -73.16705245 210.38569916 -73.18089485 208.97230339 C-73.20004688 206.99975052 -73.20593973 205.02708224 -73.21118164 203.05444336 C-73.21863907 201.93098007 -73.2260965 200.80751678 -73.23377991 199.65000916 C-73 197 -73 197 -71 195 C-68.5 194.75 -68.5 194.75 -66 195 C-63.23584391 197.76415609 -63.71704503 199.42104282 -63.66186523 203.29467773 C-63.65032913 203.94054337 -63.63879303 204.586409 -63.62690735 205.25184631 C-63.59251462 207.39578664 -63.57407146 209.53943757 -63.55859375 211.68359375 C-63.55169085 212.41824419 -63.54478794 213.15289463 -63.53767586 213.90980721 C-63.50178657 217.8063288 -63.4782846 221.70270489 -63.46459961 225.59936523 C-63.44814194 229.60100262 -63.38987227 233.60084417 -63.32145596 237.60188198 C-63.27636153 240.69657695 -63.26308191 243.79085571 -63.25798225 246.88585091 C-63.2501474 248.35893776 -63.23068344 249.83201542 -63.19875908 251.30477715 C-62.97348897 262.44216534 -65.33226599 269.28699195 -72.55677795 277.84388733 C-76.71158237 282.96789371 -76.67012122 287.43762982 -76.5234375 293.8984375 C-76.51909698 294.95485443 -76.51475647 296.01127136 -76.51028442 297.09970093 C-76.48969967 300.52551153 -76.43304283 303.94963722 -76.375 307.375 C-76.3529825 309.72426737 -76.33280766 312.07355272 -76.31445312 314.42285156 C-76.14866838 332.28685276 -75.74340216 350.15043953 -75 368 C-69.69568276 363.46413402 -69.69568276 363.46413402 -64.4375 358.875 C-61.90866518 356.65432106 -59.3642208 354.45397217 -56.80078125 352.2734375 C-51.04855759 347.37753453 -45.3469133 342.45445326 -39.8125 337.3125 C-36.14454845 333.90533763 -32.40002411 330.64122113 -28.5 327.5 C-24.33656848 324.14376439 -20.32330126 320.66644524 -16.375 317.0625 C-15.85357422 316.58941406 -15.33214844 316.11632812 -14.79492188 315.62890625 C-11.12432491 312.43088258 -11.12432491 312.43088258 -9.8758015 307.94341075 C-9.87618122 307.08752113 -9.87656094 306.23163151 -9.87695217 305.34980583 C-9.87496112 304.36350618 -9.87297007 303.37720653 -9.87091869 302.36101902 C-9.87528795 300.72388641 -9.87528795 300.72388641 -9.87974548 299.05368042 C-9.87889106 297.9004098 -9.87803663 296.74713919 -9.87715632 295.55892098 C-9.87578972 292.34818097 -9.87893123 289.13748093 -9.88393438 285.92674565 C-9.88824017 282.46798911 -9.88679236 279.00923454 -9.8860321 275.55047607 C-9.88550695 269.55474273 -9.88865285 263.55902025 -9.89426994 257.56328964 C-9.90238611 248.89439767 -9.90500028 240.22551097 -9.90625793 231.55661561 C-9.90844827 217.49298164 -9.91510786 203.42935347 -9.92456055 189.36572266 C-9.93373514 175.70166045 -9.94081574 162.03759982 -9.94506836 148.37353516 C-9.94533108 147.53172785 -9.94559381 146.68992054 -9.94586449 145.82260393 C-9.9471695 141.59963711 -9.94843321 137.37667028 -9.94967639 133.15370345 C-9.96004843 98.10246484 -9.97766625 63.05123295 -10 28 C-14.26314139 29.39495247 -16.71821269 31.34544408 -19.87205219 34.50570202 C-20.33803903 34.96852692 -20.80402587 35.43135182 -21.28413352 35.90820172 C-22.84647565 37.46359617 -24.39786187 39.02947613 -25.94953918 40.59550476 C-27.07770637 41.72307987 -28.20653446 42.84999406 -29.33596629 43.97630244 C-32.44002825 47.07559062 -35.53464585 50.18416252 -38.62783492 53.2942971 C-41.96468913 56.64614587 -45.3102072 59.9893269 -48.65470886 63.33354187 C-54.45059217 69.13126421 -60.24100486 74.93440433 -66.02781105 80.74118614 C-74.40279032 89.14496993 -82.78651581 97.53998385 -91.17249998 105.93278442 C-104.78839515 119.5601297 -118.39794325 133.19379504 -132.00317383 146.83178711 C-145.20181982 160.06217482 -158.40216509 173.29086141 -171.60571289 186.51635742 C-172.41831284 187.33031094 -173.23091278 188.14426446 -174.06813697 188.98288324 C-182.94260844 197.87200047 -191.81778442 206.76041383 -200.69380474 215.6479845 C-201.8646423 216.82034964 -201.8646423 216.82034964 -203.05913314 218.01639891 C-206.1799673 221.14128536 -209.30080941 224.26616386 -212.42174193 227.39095209 C-221.55447714 236.5350045 -230.68501469 245.68123828 -239.81158652 254.83144251 C-245.53957069 260.57415244 -251.26918681 266.31523043 -257.00007776 272.05503955 C-260.30563936 275.36591233 -263.61033126 278.6776419 -266.91278458 281.9916153 C-269.938756 285.02813664 -272.96705258 288.06231918 -275.99716803 291.09470508 C-277.09023997 292.18943073 -278.18245656 293.28501129 -279.27370641 294.38155326 C-285.00508313 300.13980897 -290.80602646 305.73735121 -297 311 C-298.67052462 312.49570227 -300.33780832 313.99504266 -302 315.5 C-307.85268529 320.77188446 -313.7084936 326.01834317 -319.8125 331 C-320.54082031 331.598125 -321.26914062 332.19625 -322.01953125 332.8125 C-322.67308594 333.204375 -323.32664062 333.59625 -324 334 C-324.99 333.67 -325.98 333.34 -327 333 C-326.58071041 328.18031006 -324.32815204 325.77289798 -321.00433254 322.53448772 C-320.47640611 322.00434269 -319.94847967 321.47419765 -319.40455547 320.92798761 C-317.62408215 319.14493668 -315.82964553 317.37663066 -314.03501892 315.60783386 C-312.74635252 314.32315015 -311.45857585 313.03757342 -310.17161661 311.75117952 C-306.62546333 308.21162322 -303.06700015 304.6846694 -299.50652158 301.15953147 C-295.67165241 297.35832053 -291.84837148 293.54548785 -288.02384949 289.73387146 C-281.39290801 283.12814791 -274.75513617 276.52935299 -268.11314201 269.93474388 C-258.50586757 260.39529287 -248.91338195 250.84107761 -239.3252619 241.28237871 C-223.76427783 225.76920473 -208.19731402 210.26204902 -192.6237793 194.76147461 C-191.69127299 193.83332879 -190.75876668 192.90518297 -189.79800261 191.94891153 C-179.39267346 181.59267742 -168.98487701 171.23893172 -158.57305908 160.88922119 C-157.63699577 159.95873569 -156.70093247 159.02825018 -155.7365036 158.06956815 C-153.84852 156.192858 -151.96053382 154.31615044 -150.07254506 152.43944547 C-149.13973556 151.51220923 -148.20692606 150.58497298 -147.24584961 149.62963867 C-146.31416971 148.70353289 -145.38248982 147.77742712 -144.42257719 146.82325753 C-128.89979076 131.39254416 -113.39240361 115.94646187 -97.89761168 100.48763829 C-88.33419559 90.94766327 -78.75792087 81.42096221 -69.16486896 71.91078673 C-62.59504317 65.39571062 -56.03964015 58.86635734 -49.49551194 52.32547017 C-45.71633288 48.5491129 -41.93081655 44.77971301 -38.12767029 41.02748108 C-34.6482971 37.59444571 -31.18772518 34.14357602 -27.74136633 30.67740837 C-26.4893232 29.42475848 -25.23042648 28.17891518 -23.9642266 26.94057693 C-22.24703741 25.25924997 -20.55622495 23.55516361 -18.86982632 21.8430357 C-18.11942142 21.12587005 -18.11942142 21.12587005 -17.35385683 20.39421621 C-15.44401458 18.41193417 -14.08701215 16.75747518 -13.76755322 13.97645888 C-13.8062492 11.98317528 -13.90106351 9.99120278 -14 8 C-10.52914945 1.5370369 -7.43404636 -0.8820055 0 0 Z " fill="#FFFFFF" transform="translate(454,82)"/>
<path d="M0 0 C6.93 0 13.86 0 21 0 C26.74342036 6.9889814 26.74342036 6.9889814 28.35546875 10.70703125 C31.23631458 16.77885899 35.00797322 22.20095097 38.79187012 27.72964478 C40.78977209 30.65730699 42.75663809 33.6055565 44.72265625 36.5546875 C45.09953583 37.11938248 45.47641541 37.68407745 45.86471558 38.2658844 C49.20396352 43.28121467 52.42748363 48.3600053 55.5859375 53.49047852 C58.0302605 57.46091755 60.53823683 61.38209091 63.09106445 65.28369141 C67.2837402 71.69294205 71.36122127 78.15124738 75.25 84.75 C75.62576172 85.38607178 76.00152344 86.02214355 76.38867188 86.67749023 C80.09733437 93.03508259 83.50448988 99.50833835 87 106 C87 71.02 87 36.04 87 0 C92.61 0 98.22 0 104 0 C104 44.55 104 89.1 104 135 C97.73 135 91.46 135 85 135 C81.32714325 131.26323823 80.04183576 129.49219083 78 125 C76.90514485 123.25364732 75.78500989 121.5228979 74.640625 119.80859375 C73.50829729 118.01956883 72.37814929 116.22916274 71.25 114.4375 C70.01353825 112.4840474 68.77655427 110.53092525 67.5390625 108.578125 C66.93610352 107.62615234 66.33314453 106.67417969 65.71191406 105.69335938 C63.37115816 102.0106413 61.00185656 98.34698263 58.625 94.6875 C38.47563786 63.60012859 38.47563786 63.60012859 30.5 50.375 C30.05664307 49.64369873 29.61328613 48.91239746 29.15649414 48.15893555 C24.82138241 40.90042506 20.99392085 33.48860159 17 26 C17 61.97 17 97.94 17 135 C11.39 135.33 5.78 135.66 0 136 C0 91.12 0 46.24 0 0 Z " fill="#FFFFFF" transform="translate(1859,520)"/>
<path d="M0 0 C1.09723389 0.00829834 2.19446777 0.01659668 3.32495117 0.02514648 C19.44349286 0.36022899 32.53277607 5.36490747 44.4375 16.5 C61.49846158 34.49648328 63.47429248 56.22924784 62.86230469 79.97558594 C62.01560489 96.7440261 54.6562419 111.80296381 42.6875 123.4375 C42.06230469 124.08332031 41.43710938 124.72914063 40.79296875 125.39453125 C29.63236174 136.17920203 13.5836782 140.03005947 -1.5 139.9375 C-2.59135254 139.93177979 -3.68270508 139.92605957 -4.80712891 139.92016602 C-20.8812881 139.56763129 -34.1184207 134.34539507 -46 123.3125 C-62.863867 105.45309166 -65.1380206 84.16754761 -64.48730469 60.68701172 C-63.56546009 43.55048722 -55.4321535 26.99209671 -43.00390625 15.2578125 C-30.43739531 4.60141122 -16.33724518 -0.15995915 0 0 Z M-31.46875 28.87890625 C-43.54933891 44.36279539 -45.69910467 62.43754956 -44.3125 81.4375 C-42.6285341 94.13471084 -36.91694972 106.78210657 -27.3125 115.4375 C-16.58234072 123.28014134 -6.55659834 125.64026641 6.6875 124.4375 C18.10127429 122.17894396 26.32115067 116.18695012 33.125 106.87890625 C43.54655714 90.59522321 45.51562472 71.10475333 41.6875 52.4375 C38.23905632 39.98830194 31.74397252 27.93848348 20.8125 20.5625 C3.30054824 10.77342058 -18.17634545 13.82862936 -31.46875 28.87890625 Z " fill="#FFFFFF" transform="translate(1773.3125,517.5625)"/>
<path d="M0 0 C1.09723389 0.00829834 2.19446777 0.01659668 3.32495117 0.02514648 C19.44349286 0.36022899 32.53277607 5.36490747 44.4375 16.5 C61.49846158 34.49648328 63.47429248 56.22924784 62.86230469 79.97558594 C62.01560489 96.7440261 54.6562419 111.80296381 42.6875 123.4375 C42.06230469 124.08332031 41.43710938 124.72914063 40.79296875 125.39453125 C29.63236174 136.17920203 13.5836782 140.03005947 -1.5 139.9375 C-2.59135254 139.93177979 -3.68270508 139.92605957 -4.80712891 139.92016602 C-20.8812881 139.56763129 -34.1184207 134.34539507 -46 123.3125 C-62.863867 105.45309166 -65.1380206 84.16754761 -64.48730469 60.68701172 C-63.56546009 43.55048722 -55.4321535 26.99209671 -43.00390625 15.2578125 C-30.43739531 4.60141122 -16.33724518 -0.15995915 0 0 Z M-31.46875 28.87890625 C-43.54933891 44.36279539 -45.69910467 62.43754956 -44.3125 81.4375 C-42.6285341 94.13471084 -36.91694972 106.78210657 -27.3125 115.4375 C-16.58234072 123.28014134 -6.55659834 125.64026641 6.6875 124.4375 C18.10127429 122.17894396 26.32115067 116.18695012 33.125 106.87890625 C43.54655714 90.59522321 45.51562472 71.10475333 41.6875 52.4375 C38.23905632 39.98830194 31.74397252 27.93848348 20.8125 20.5625 C3.30054824 10.77342058 -18.17634545 13.82862936 -31.46875 28.87890625 Z " fill="#FFFFFF" transform="translate(1257.3125,517.5625)"/>
<path d="M0 0 C5.94 0 11.88 0 18 0 C18.01981934 2.36994141 18.03963867 4.73988281 18.06005859 7.18164062 C18.12741199 15.07260691 18.20504048 22.96344909 18.28752708 30.85427094 C18.33715814 35.63149702 18.38348675 40.40870445 18.421875 45.18603516 C18.45915255 49.80920333 18.50561803 54.43220147 18.55806351 59.05522156 C18.57638482 60.80593335 18.59157177 62.55668126 18.60334396 64.30744934 C18.30842473 91.33694031 18.30842473 91.33694031 30.32421875 114.6015625 C38.42566349 121.36220869 47.84986277 121.77498397 58 121 C64.27669464 119.56888251 70.95045309 117.25378534 75 112 C84.43943742 96.23727679 84.14392654 80.00358259 84.31640625 62.20703125 C84.33701759 60.40670846 84.35801503 58.60639006 84.37937927 56.80607605 C84.43416884 52.10280949 84.48376541 47.39950244 84.53222656 42.69616699 C84.58275956 37.88269513 84.63827842 33.06928096 84.69335938 28.25585938 C84.80041233 18.83728736 84.90150953 9.41866545 85 0 C90.94 0 96.88 0 103 0 C103.06801066 11.90116815 103.12295111 23.80220539 103.15543652 35.70352459 C103.17103465 41.23089049 103.19216513 46.75811553 103.22631836 52.28540039 C103.25912162 57.62817058 103.27689693 62.97080601 103.28463173 68.3136692 C103.29013782 70.3432305 103.30088895 72.37278514 103.31719017 74.40228844 C103.46166627 93.14993537 101.9849897 110.62753938 88.32421875 124.96484375 C77.34135719 134.58176959 64.89671842 137.57565585 50.625 137.4375 C48.97854492 137.42614014 48.97854492 137.42614014 47.29882812 137.41455078 C34.16639452 137.14761556 23.64285128 134.10188721 13.84765625 125 C-0.2973956 110.24910794 -0.44525955 91.33916056 -0.29296875 72.16796875 C-0.28736261 70.07904874 -0.28309733 67.99012474 -0.28010559 65.90119934 C-0.26873694 60.44486297 -0.23933974 54.98877214 -0.20599365 49.53253174 C-0.17511934 43.94815389 -0.1615634 38.36373576 -0.14648438 32.77929688 C-0.11446128 21.85274021 -0.06175987 10.92642909 0 0 Z " fill="#FFFFFF" transform="translate(1432,520)"/>
<path d="M0 0 C1.08740479 0.00394775 2.17480957 0.00789551 3.29516602 0.01196289 C12.47878159 0.17499372 21.42364294 1.27432147 29.75 5.4375 C29.14891424 11.08770618 27.67471317 16.09914461 25.75 21.4375 C21.25931741 20.86177146 17.23837526 19.66864983 12.99609375 18.15625 C3.39440173 15.08370855 -7.04533673 15.28864758 -16.25 19.4375 C-17.178125 19.85 -18.10625 20.2625 -19.0625 20.6875 C-22.9438561 23.79258488 -24.72437515 27.6729023 -26.125 32.375 C-26.39138706 38.90148285 -24.56245016 44.47818232 -20.25 49.4375 C-12.66542928 54.74624233 -4.24834784 58.16177349 4.27148438 61.6484375 C10.61566205 64.31341648 16.17342879 67.40949303 21.75 71.4375 C22.801875 72.18 23.85375 72.9225 24.9375 73.6875 C32.58424339 81.16431576 35.64894064 89.82463453 36.0625 100.3125 C35.78274542 110.92671797 32.19401149 119.74552111 24.86328125 127.41015625 C14.14966587 137.32393394 1.29268017 140.00514507 -13 139.875 C-14.13727539 139.86960205 -15.27455078 139.8642041 -16.44628906 139.85864258 C-27.19668671 139.6649762 -37.94300111 138.27478439 -47.25 132.4375 C-49.0455611 128.30418877 -47.7977771 125.22076412 -46.3125 121.125 C-45.74208984 119.52205078 -45.74208984 119.52205078 -45.16015625 117.88671875 C-44.85980469 117.07847656 -44.55945312 116.27023437 -44.25 115.4375 C-43.24453125 115.85322266 -43.24453125 115.85322266 -42.21875 116.27734375 C-38.76394885 117.62744367 -35.2674538 118.82635452 -31.75 120 C-31.09902344 120.22107422 -30.44804688 120.44214844 -29.77734375 120.66992188 C-18.75704279 124.35448715 -6.03922102 125.58164645 4.75 120.4375 C10.78330515 116.56384385 13.84442417 112.12946298 15.5625 105.125 C15.88620048 98.75889055 15.01290921 93.56566413 11.125 88.375 C4.1529354 81.09980216 -6.40450855 77.61486382 -15.52612305 73.79541016 C-28.07088307 68.51039796 -37.50030126 62.14528103 -44.125 50 C-47.02375692 41.23429794 -46.68382991 28.96929017 -42.6328125 20.640625 C-36.00133551 10.07522099 -27.23751939 4.15278584 -15.28051758 1.04394531 C-10.18487137 0.02424136 -5.18247753 -0.0485619 0 0 Z " fill="#FFFFFF" transform="translate(1141.25,517.5625)"/>
<path d="M0 0 C34.32 0 68.64 0 104 0 C104 4.95 104 9.9 104 15 C89.81 15 75.62 15 61 15 C61 54.6 61 94.2 61 135 C55.06 135 49.12 135 43 135 C43 95.4 43 55.8 43 15 C28.81 15 14.62 15 0 15 C0 10.05 0 5.1 0 0 Z " fill="#FFFFFF" transform="translate(1549,520)"/>
<path d="M0 0 C34.32 0 68.64 0 104 0 C104 4.95 104 9.9 104 15 C89.81 15 75.62 15 61 15 C61 54.6 61 94.2 61 135 C55.06 135 49.12 135 43 135 C43 95.4 43 55.8 43 15 C28.81 15 14.62 15 0 15 C0 10.05 0 5.1 0 0 Z " fill="#FFFFFF" transform="translate(937,520)"/>
<path d="M0 0 C5.94 0 11.88 0 18 0 C18 39.6 18 79.2 18 120 C37.8 120 57.6 120 78 120 C78 124.95 78 129.9 78 135 C52.26 135 26.52 135 0 135 C0 90.45 0 45.9 0 0 Z " fill="#FFFFFF" transform="translate(1343,520)"/>
<path d="M0 0 C5.94 0 11.88 0 18 0 C18 44.55 18 89.1 18 135 C12.06 135 6.12 135 0 135 C0 90.45 0 45.9 0 0 Z " fill="#FFFFFF" transform="translate(1668,520)"/>
<path d="M0 0 C5.94 0 11.88 0 18 0 C18 44.55 18 89.1 18 135 C12.06 135 6.12 135 0 135 C0 90.45 0 45.9 0 0 Z " fill="#FFFFFF" transform="translate(905,520)"/>
<path d="M0 0 C2.95928132 2.05863048 4.58885547 3.62190445 5.6328125 7.12109375 C6.43968026 12.21122757 6.08308083 15.68368684 3 20 C0.8125 21.875 0.8125 21.875 -2 23 C-3.23363281 22.87882812 -4.46726562 22.75765625 -5.73828125 22.6328125 C-8.3840368 22.59963877 -9.64035974 22.75021123 -11.83276367 24.27294922 C-13.66810415 26.10544019 -15.34095729 28.00656567 -17 30 C-18.21904016 31.3876084 -19.43908443 32.77433534 -20.66015625 34.16015625 C-21.23652832 34.82805176 -21.81290039 35.49594727 -22.40673828 36.18408203 C-24.32419608 38.36950206 -26.34982153 40.41493431 -28.4375 42.4375 C-30.85076567 44.81003545 -33.11268043 47.24087994 -35.3125 49.8125 C-38.22250413 53.20195561 -41.32159176 56.36452146 -44.5 59.5 C-48.25958329 63.20887234 -51.84375342 66.99270482 -55.23046875 71.046875 C-57 73 -57 73 -59.42578125 75.140625 C-64.17615273 79.0926492 -64.17615273 79.0926492 -66.4296875 84.58203125 C-66.35290262 86.28921517 -66.23073418 87.99509471 -66.05859375 89.6953125 C-65.9621191 93.48998208 -67.56020401 95.20141048 -70 98 C-72 99 -72 99 -73.9609375 98.640625 C-77.02392577 98.14499583 -78.98266065 98.17708927 -82 99 C-86.14949608 102.13220027 -89.35222727 106.38779771 -92.63525391 110.38037109 C-94.40950139 112.48598072 -96.3322411 114.40118628 -98.3125 116.3125 C-100.76735693 118.72711337 -103.07516957 121.19524554 -105.3125 123.8125 C-108.22250451 127.20195605 -111.32159942 130.36451453 -114.5 133.5 C-118.21187552 137.16195956 -121.72656645 140.91589196 -125.10546875 144.88671875 C-128.44894234 148.6162429 -132.06480946 152.08131021 -135.64453125 155.58203125 C-138.10724266 157.9623308 -138.10724266 157.9623308 -140 161 C-139.979375 162.0725 -139.95875 163.145 -139.9375 164.25 C-140.02199056 169.31943365 -141.33618846 173.08969787 -144.6875 176.9375 C-148.11426375 178.51195902 -151.34346749 178.66746228 -155 178 C-158.44312714 175.8755173 -159.71617547 174.85147359 -161 171 C-161.56216437 166.16170012 -161.45721862 162.85347476 -159.125 158.5 C-157 156 -157 156 -155 155 C-153.61578495 155.10837017 -152.23304232 155.23604343 -150.8515625 155.375 C-146.85994813 155.41333483 -145.02836842 154.69405379 -142.0859375 152 C-140.82469394 150.68959551 -139.58828194 149.35493253 -138.375 148 C-137.39200928 146.95996826 -137.39200928 146.95996826 -136.38916016 145.89892578 C-132.77891519 142.05383876 -129.26628347 138.11906173 -125.8671875 134.0859375 C-122.65444186 130.49680324 -119.18159761 127.1627509 -115.75732422 123.77685547 C-112.31987806 120.36317731 -109.07994187 116.86648045 -105.94921875 113.16796875 C-102.66169939 109.51150935 -99.13151742 106.09170022 -95.6171875 102.65429688 C-89.20823525 96.896791 -89.20823525 96.896791 -86.9375 89.0625 C-86.97230469 88.37929688 -87.00710938 87.69609375 -87.04296875 86.9921875 C-86.95581916 82.95161563 -84.94084539 80.08559083 -82.375 77.125 C-79.6564214 75.83725224 -78.84707409 76.11378781 -75.953125 76.4921875 C-71.42962903 76.5421759 -69.48504939 75.17945374 -66.2109375 72.125 C-64.5754142 70.43919362 -62.96388453 68.72983397 -61.375 67 C-60.16457031 65.74123047 -60.16457031 65.74123047 -58.9296875 64.45703125 C-54.69951497 60.02771099 -50.64450205 55.46440595 -46.63525391 50.8359375 C-44.04727957 47.93035867 -41.28197509 45.21818565 -38.5 42.5 C-34.40218181 38.45331013 -30.44313977 34.38433285 -26.765625 29.9453125 C-25 28 -25 28 -22.359375 25.6796875 C-17.05568077 21.2563662 -17.05568077 21.2563662 -14.50390625 15.12890625 C-14.58311553 13.24576944 -14.71273146 11.36391225 -14.8984375 9.48828125 C-15 7 -15 7 -13.25 3.4375 C-8.95389687 -1.21661172 -6.23142072 -1.63984756 0 0 Z " fill="#FFFFFF" transform="translate(402,202)"/>
<path d="M0 0 C3.24900717 1.08300239 3.74706612 1.63159369 5.8125 4.1875 C9.33274028 8.35324276 13.12241478 12.17222515 17 16 C21.18899529 20.14448349 25.22675627 24.3092217 29.03125 28.8125 C32.48559665 32.65066294 36.20856889 36.22720052 39.87792969 39.85839844 C43.50749496 43.46465992 46.96444286 47.13854426 50.26953125 51.046875 C53.97219659 55.22595552 58.01758995 59.08970603 62 63 C61.67 63.66 61.34 64.32 61 65 C52.89931651 58.77158542 45.01899632 52.36615547 37.33227539 45.63256836 C33.21216535 42.02955497 29.01794918 38.55719092 24.71191406 35.17700195 C21.49175306 32.59200235 18.34179263 29.93159844 15.1953125 27.2578125 C14.59726807 26.75064697 13.99922363 26.24348145 13.38305664 25.72094727 C11.92147037 24.48130017 10.46065574 23.24074338 9 22 C9.0207811 22.89820969 9.04156219 23.79641937 9.06297302 24.72184753 C9.24646809 33.23871546 9.35630692 41.75280148 9.38603115 50.27164745 C9.40383899 54.65054609 9.44884976 59.0254459 9.55883789 63.40307617 C10.29875772 94.06870033 10.29875772 94.06870033 4.79370117 101.06860352 C1.81191214 103.97099323 -1.39284555 106.05693854 -5.08784485 107.94203186 C-8.2780077 109.70710341 -10.86242725 112.13806767 -13.5625 114.5625 C-14.62349201 115.46295698 -15.68696629 116.36050491 -16.75390625 117.25390625 C-20.1850578 120.15092901 -23.59344568 123.07412801 -27 126 C-32.01633723 130.3077251 -37.05322153 134.58994615 -42.10546875 138.85546875 C-46.08583601 142.21902365 -50.04643624 145.60499713 -54 149 C-59.00969127 153.30192032 -64.03879825 157.57969429 -69.08569336 161.83789062 C-71.99629351 164.29622487 -74.89653481 166.76585897 -77.78515625 169.25 C-78.73068359 170.06307617 -78.73068359 170.06307617 -79.6953125 170.89257812 C-80.90853247 171.93701331 -82.12082559 172.98252642 -83.33203125 174.02929688 C-86.15186249 176.45711886 -88.98483375 178.81787479 -92 181 C-92.66 180.67 -93.32 180.34 -94 180 C-86.05735512 172.03411653 -78.11196049 164.0709869 -70.16310883 156.11129665 C-66.47165794 152.41464206 -62.78113691 148.71706928 -59.09277344 145.01733398 C-55.52883545 141.4424775 -51.9624127 137.87011697 -48.39430237 134.29942513 C-47.03797352 132.94125812 -45.68252052 131.58221582 -44.32798767 130.22225761 C-28.07146478 113.90325592 -28.07146478 113.90325592 -21.27084351 109.0539093 C-12.04162186 102.40771703 -2.24460988 94.8316331 0.25946045 83.16778564 C2.19157785 70.79055817 1.53298143 58.09515494 1.04284668 45.6272583 C0.8656458 40.47210909 0.82290925 35.31584492 0.76757812 30.15820312 C0.64048443 20.10012166 0.36852112 10.05193701 0 0 Z " fill="#FFFFFF" transform="translate(104,289)"/>
<path d="M0 0 C1.98 0 3.96 0 6 0 C7.19122756 2.38245511 7.12576657 3.8311942 7.12698364 6.49005127 C7.12980347 7.43492905 7.13262329 8.37980682 7.13552856 9.35331726 C7.13350433 10.39333389 7.1314801 11.43335052 7.12939453 12.50488281 C7.13114685 13.59769058 7.13289917 14.69049835 7.13470459 15.81642151 C7.13912182 19.44533862 7.13618474 23.07420735 7.1328125 26.703125 C7.13348577 29.21938079 7.13445599 31.73563652 7.13571167 34.25189209 C7.13718863 39.53463417 7.13512986 44.8173588 7.13037109 50.10009766 C7.12493985 56.19961523 7.12668309 62.29909932 7.1321975 68.39861608 C7.13729234 74.26976353 7.13673979 80.14089831 7.13381577 86.01204681 C7.13314867 88.50790156 7.13396735 91.00375715 7.13629532 93.4996109 C7.13883694 96.99227654 7.13495933 100.48487818 7.12939453 103.97753906 C7.13141876 105.00945877 7.13344299 106.04137848 7.13552856 107.10456848 C7.12153275 111.85032336 6.99316133 116.33394703 6 121 C6.763125 121.20625 7.52625 121.4125 8.3125 121.625 C11.9737109 123.49817767 12.6449834 125.14890018 14 129 C14.7488623 133.58449845 14.37466874 136.31310731 12.125 140.4375 C9.99088123 143.01099616 9.24326733 143.82902021 6.01171875 144.2734375 C1.56198522 144.46787964 -0.35399301 144.49796372 -4 141.6875 C-7.14806341 137.45728979 -7.35741717 134.18254891 -7 129 C-5.59539303 126.12694028 -4.25489001 124.25489001 -2 122 C-1.68874052 119.79907124 -1.68874052 119.79907124 -1.72825623 117.21728516 C-1.71367874 115.70294891 -1.71367874 115.70294891 -1.69880676 114.15802002 C-1.69821762 113.04626404 -1.69762848 111.93450806 -1.69702148 110.7890625 C-1.68858215 109.62155457 -1.68014282 108.45404663 -1.67144775 107.25115967 C-1.65003559 104.04461851 -1.63736961 100.83817923 -1.6282146 97.63158417 C-1.61632033 94.2798973 -1.59245849 90.92828608 -1.56959534 87.57666016 C-1.52791988 81.22551146 -1.49551704 74.87435495 -1.46712118 68.52313423 C-1.41616998 57.14562517 -1.35405817 45.76818425 -1.28178078 34.39079094 C-1.26092564 31.05181605 -1.2426261 27.71285439 -1.22979546 24.37384033 C-1.21517596 20.65283874 -1.19489618 16.93190581 -1.17358398 13.2109375 C-1.16966393 11.54330353 -1.16966393 11.54330353 -1.16566467 9.84197998 C-1.15876617 8.83242249 -1.15186768 7.82286499 -1.14476013 6.78271484 C-1.14090522 5.9022348 -1.1370503 5.02175476 -1.13307858 4.11459351 C-1 2 -1 2 0 0 Z " fill="#FFFFFF" transform="translate(416,258)"/>
<path d="M0 0 C1.99954746 -0.04254356 4.00041636 -0.04080783 6 0 C7 1 7 1 7.12469864 3.01719379 C7.1246571 3.91074668 7.12461555 4.80429956 7.12457275 5.72492981 C7.12841728 7.25811104 7.12841728 7.25811104 7.13233948 8.82226562 C7.13023972 9.95317627 7.12813995 11.08408691 7.12597656 12.24926758 C7.1278447 13.43292404 7.12971283 14.61658051 7.13163757 15.83610535 C7.13565276 18.41652521 7.13771743 20.99694864 7.13809967 23.5773716 C7.13923763 27.65739112 7.15205868 31.73731965 7.16766357 35.81730652 C7.17152285 36.8491584 7.17152285 36.8491584 7.1754601 37.90185577 C7.18072696 39.30882588 7.18601244 40.71579592 7.19131613 42.1227659 C7.22645504 51.6249079 7.25297817 61.12693808 7.25048828 70.62915039 C7.24890027 77.03366816 7.26492288 83.43787709 7.30119491 89.84229583 C7.31967031 93.23293673 7.32898501 96.62306198 7.31671906 100.01374245 C7.30714325 103.79716202 7.32819607 107.5792497 7.35644531 111.36254883 C7.34624863 112.48738678 7.33605194 113.61222473 7.32554626 114.77114868 C7.22651261 120.78441714 7.22651261 120.78441714 10.47772217 125.5398407 C11.31007385 126.02169327 12.14242554 126.50354584 13 127 C14.35416319 131.06248957 14.54273091 134.75222604 14 139 C11.07317073 144.46341463 11.07317073 144.46341463 8 146 C1.01321586 146.57268722 1.01321586 146.57268722 -2.875 144.375 C-6.27772644 140.5719528 -7.0279301 137.5640858 -6.9375 132.5 C-6 129 -6 129 -3.48262024 126.5295105 C0.38769565 122.02247375 -0.29730432 116.68947241 -0.34057617 111.02783203 C-0.33009247 109.82726669 -0.31960876 108.62670135 -0.30880737 107.38975525 C-0.285002 104.11101279 -0.2831188 100.83314904 -0.29110122 97.55435801 C-0.29423247 94.12296366 -0.26917399 90.69177598 -0.24714661 87.26046753 C-0.20973591 80.76888311 -0.19756041 74.27750816 -0.1945222 67.78582656 C-0.18982811 60.39274071 -0.15689365 52.99986426 -0.12162435 45.60687089 C-0.04973056 30.40460478 -0.01317963 15.20243893 0 0 Z " fill="#FFFFFF" transform="translate(340,324)"/>
<path d="M0 0 C2.86942113 2.26533247 3.83907612 3.51722837 5 7 C5.41873961 11.30013364 5.4550224 14.93069736 3.75 18.9375 C1.82996021 21.20040404 0.83156597 22.13479929 -2 23 C-5.61960287 23.26324385 -8.15455041 23.41167372 -11.44677734 21.80859375 C-13.97958921 20.69015265 -13.97958921 20.69015265 -16.19384766 22.01953125 C-16.92651855 22.61121094 -17.65918945 23.20289062 -18.4140625 23.8125 C-19.24744141 24.46863281 -20.08082031 25.12476562 -20.93945312 25.80078125 C-22.26879883 26.88939453 -22.26879883 26.88939453 -23.625 28 C-25.52225252 29.50149853 -27.42071387 31.00147073 -29.3203125 32.5 C-30.27454102 33.26054688 -31.22876953 34.02109375 -32.21191406 34.8046875 C-36.23463282 37.97213821 -40.35913366 40.98973665 -44.5 44 C-51.22687022 48.92299315 -57.88052297 53.93362179 -64.5 59 C-71.90083674 64.66313684 -79.34814357 70.25351317 -86.87329102 75.75048828 C-91.11748984 78.85543365 -95.32312196 82.00168766 -99.4921875 85.20703125 C-100.40154053 85.9023999 -101.31089355 86.59776855 -102.24780273 87.31420898 C-104.00599287 88.66129829 -105.75839254 90.01598801 -107.50415039 91.37915039 C-108.6912561 92.28588501 -108.6912561 92.28588501 -109.90234375 93.2109375 C-110.59835693 93.75024902 -111.29437012 94.28956055 -112.01147461 94.84521484 C-114 96 -114 96 -118 96 C-118.35546875 93.76953125 -118.35546875 93.76953125 -118 91 C-116.11694947 89.28784818 -114.43647139 88.03914466 -112.3125 86.6875 C-111.018215 85.8150698 -109.72672289 84.93848719 -108.4375 84.05859375 C-107.72722656 83.57632324 -107.01695312 83.09405273 -106.28515625 82.59716797 C-102.02443489 79.61921507 -97.93034309 76.4209776 -93.8125 73.25 C-83.20105101 65.11929829 -72.45157522 57.1883919 -61.66601562 49.29101562 C-51.40117862 41.77032886 -41.21213247 34.16238717 -31.11572266 26.41650391 C-17.52103297 16 -17.52103297 16 -15 16 C-15.226875 14.989375 -15.45375 13.97875 -15.6875 12.9375 C-16.05883549 8.25867281 -15.39401783 6.01577185 -13 2 C-8.52186156 -1.25682795 -5.29021167 -1.46950324 0 0 Z " fill="#FFFFFF" transform="translate(307,87)"/>
</svg>
