<?xml version="1.0" encoding="UTF-8"?>
<svg version="1.1" xmlns="http://www.w3.org/2000/svg" width="1971" height="616">
<path d="M0 0 C20.13 0 40.26 0 61 0 C67.38992728 9.87534216 73.74878762 19.71805881 79.875 29.75 C81.2562957 32.00273584 82.63780893 34.25533831 84.01953125 36.5078125 C85.02814209 38.15378418 85.02814209 38.15378418 86.05712891 39.83300781 C88.8815488 44.4369755 91.71939034 49.0325557 94.5625 53.625 C95.08400635 54.46748291 95.6055127 55.30996582 96.14282227 56.17797852 C100.18043904 62.69304078 104.24502496 69.19105116 108.3125 75.6875 C114.9805496 86.33894767 121.57393794 97.03520955 128.15234375 107.7421875 C133.22211636 115.99272156 138.32202498 124.22451306 143.42333984 132.45556641 C146.11708555 136.80276643 148.80839917 141.15147177 151.5 145.5 C152.58332213 147.25000693 153.66665546 149.00000694 154.75 150.75 C164.5 166.5 174.25 182.25 184 198 C184.33 132.66 184.66 67.32 185 0 C204.14 0 223.28 0 243 0 C243 100.32 243 200.64 243 304 C222.21 304 201.42 304 180 304 C176.04 297.4 172.08 290.8 168 284 C165.74727679 280.40133996 163.48908647 276.81616642 161.1875 273.25 C160.00177219 271.39897018 158.81690753 269.54738723 157.6328125 267.6953125 C157.03629883 266.76235352 156.43978516 265.82939453 155.82519531 264.86816406 C152.70917917 259.97156726 149.63499277 255.04898451 146.5625 250.125 C145.62893677 248.62888184 145.62893677 248.62888184 144.67651367 247.10253906 C143.41448094 245.07924663 142.15268121 243.05580884 140.89111328 241.03222656 C137.76456576 236.01909459 134.63199839 231.00972757 131.5 226 C130.24997074 224.00001829 128.99997074 222.00001828 127.75 220 C127.13125 219.01 126.5125 218.02 125.875 217 C92.4375 163.5 92.4375 163.5 59 110 C58.67 174.02 58.34 238.04 58 304 C38.86 304 19.72 304 0 304 C0 203.68 0 103.36 0 0 Z " fill="#FFFFFF" transform="translate(1138,88)"/>
<path d="M0 0 C1.21623047 1.01707031 1.21623047 1.01707031 2.45703125 2.0546875 C18.65952541 16.04209413 31.67146533 36.77499227 36 58 C36.01759324 59.66657381 36.01962471 61.33344888 36 63 C30.47265459 64.08646654 24.94488552 65.17074464 19.41674805 66.25317383 C17.54424017 66.62011554 15.67184046 66.98760979 13.79956055 67.35571289 C8.39747565 68.41758691 2.99355962 69.46904479 -2.41375732 70.50396729 C-4.11758606 70.83075595 -5.8209307 71.1600804 -7.52374268 71.49212646 C-9.85918858 71.94569443 -12.19664765 72.38675547 -14.53515625 72.82421875 C-15.56376015 73.02722343 -15.56376015 73.02722343 -16.61314392 73.23432922 C-20.33047922 73.91395228 -23.39013689 74.25149145 -27 73 C-28.30078125 70.4453125 -28.30078125 70.4453125 -29.3125 67.125 C-34.80547485 51.45285612 -46.52847633 40.56351411 -61 33 C-81.93957087 24.02968954 -107.52728402 24.59035577 -128.8125 32.25 C-139.68006122 36.80299323 -148.66213587 42.67668712 -157 51 C-157.62519531 51.61359375 -158.25039063 52.2271875 -158.89453125 52.859375 C-180.30347145 75.47649467 -181.71756782 108.94524805 -181.140625 138.27197266 C-180.12495786 165.19773177 -172.18391501 191.48589713 -153 211 C-152.38511719 211.62777344 -151.77023437 212.25554687 -151.13671875 212.90234375 C-135.27771865 227.87840166 -112.95671927 233.52819076 -91.62255859 232.97631836 C-70.18385488 231.95296179 -49.17026383 224.22895705 -31 213 C-30.12590233 212.53248573 -30.12590233 212.53248573 -29.23414612 212.05552673 C-25.45206529 209.8055859 -25.45206529 209.8055859 -23.35047913 206.08674622 C-23.09393474 203.76694333 -23.05591518 201.53257999 -23.09765625 199.19921875 C-23.07874329 198.08625427 -23.07874329 198.08625427 -23.05944824 196.95080566 C-23.0227257 194.19661506 -23.04612869 191.44188676 -23.0625 188.6875 C-23.041875 182.520625 -23.02125 176.35375 -23 170 C-46.43 170 -69.86 170 -94 170 C-94 152.84 -94 135.68 -94 118 C-49.78 118 -5.56 118 40 118 C40.433125 148.1021875 40.433125 148.1021875 40.875 178.8125 C41.00245605 185.1338208 41.12991211 191.4551416 41.26123047 197.96801758 C41.32446289 205.72595215 41.32446289 205.72595215 41.33621216 209.36528015 C41.35762133 211.89098194 41.40668151 214.41654615 41.47805786 216.94132996 C42.07979768 239.35990031 42.07979768 239.35990031 37.04278564 245.01107788 C34.22644697 247.50329607 31.23416611 249.36968313 27.87538052 251.04283905 C24.70165392 252.66265281 21.79130936 254.67409602 18.8125 256.625 C-27.08466844 283.97003859 -84.4623983 294.9107165 -136.76123047 282.30639648 C-140.54500091 281.31570674 -144.27804817 280.20109776 -148 279 C-148.68707031 278.77973145 -149.37414062 278.55946289 -150.08203125 278.33251953 C-184.66576105 266.95063714 -211.63100395 243.93066296 -228.28125 211.62890625 C-250.42481513 167.38326924 -252.69881908 114.81317624 -237.73046875 67.94921875 C-232.08776132 51.27919153 -223.52293447 35.30667046 -212 22 C-211.3507959 21.23768066 -211.3507959 21.23768066 -210.68847656 20.45996094 C-186.96488255 -7.24933551 -152.77532144 -23.7484371 -116.52392578 -26.7890625 C-76.7235831 -29.17145796 -31.78404365 -27.27607336 0 0 Z " fill="#FFFFFF" transform="translate(1041,110)"/>
<path d="M0 0 C0 3 0 3 -1.28515625 4.54296875 C-1.87167969 5.08566406 -2.45820313 5.62835938 -3.0625 6.1875 C-5.56261338 8.58302696 -7.93217377 10.99748939 -10.1875 13.625 C-13.30334572 17.23575634 -16.50978143 20.75132442 -19.75 24.25 C-20.26578613 24.80695557 -20.78157227 25.36391113 -21.31298828 25.93774414 C-22.36272657 27.07102505 -23.41253133 28.20424439 -24.46240234 29.33740234 C-26.83708074 31.90513176 -29.20048145 34.4831282 -31.5625 37.0625 C-32.01206055 37.55331055 -32.46162109 38.04412109 -32.92480469 38.54980469 C-33.83030793 39.53851282 -34.73574434 40.52728217 -35.64111328 41.51611328 C-37.92642496 44.01164407 -40.2132958 46.50574527 -42.5 49 C-43.41667404 49.99999325 -44.3333407 50.99999324 -45.25 52 C-50.75 58 -50.75 58 -52.12548828 59.50048828 C-53.04058633 60.49880661 -53.95562555 61.49717886 -54.87060547 62.49560547 C-57.18578852 65.0217842 -59.5020401 67.54696832 -61.8203125 70.0703125 C-66.04766751 74.67349765 -70.26526083 79.28413776 -74.4375 83.9375 C-78.89643915 88.90512383 -83.42438331 93.80683252 -87.95703125 98.70703125 C-90.83394762 101.81782841 -93.70049617 104.93798345 -96.5625 108.0625 C-97.23708252 108.79895752 -97.23708252 108.79895752 -97.92529297 109.55029297 C-98.83062602 110.53884515 -99.73589963 111.52745177 -100.64111328 112.51611328 C-102.46779417 114.51082518 -104.29549705 116.50459907 -106.12329102 118.49829102 C-107.03923222 119.49739624 -107.95508545 120.49658211 -108.87084961 121.49584961 C-111.18593628 124.02196074 -113.50211788 126.54705298 -115.8203125 129.0703125 C-120.04766751 133.67349765 -124.26526083 138.28413776 -128.4375 142.9375 C-132.89643915 147.90512383 -137.42438331 152.80683252 -141.95703125 157.70703125 C-144.83394762 160.81782841 -147.70049617 163.93798345 -150.5625 167.0625 C-151.23708252 167.79895752 -151.23708252 167.79895752 -151.92529297 168.55029297 C-152.83062602 169.53884515 -153.73589963 170.52745177 -154.64111328 171.51611328 C-156.46779417 173.51082518 -158.29549705 175.50459907 -160.12329102 177.49829102 C-161.03923222 178.49739624 -161.95508545 179.49658211 -162.87084961 180.49584961 C-165.18593628 183.02196074 -167.50211788 185.54705298 -169.8203125 188.0703125 C-174.04766751 192.67349765 -178.26526083 197.28413776 -182.4375 201.9375 C-186.89643915 206.90512383 -191.42438331 211.80683252 -195.95703125 216.70703125 C-198.83394762 219.81782841 -201.70049617 222.93798345 -204.5625 226.0625 C-205.23708252 226.79895752 -205.23708252 226.79895752 -205.92529297 227.55029297 C-206.83062602 228.53884515 -207.73589963 229.52745177 -208.64111328 230.51611328 C-210.46779417 232.51082518 -212.29549705 234.50459907 -214.12329102 236.49829102 C-215.03923222 237.49739624 -215.95508545 238.49658211 -216.87084961 239.49584961 C-219.18593628 242.02196074 -221.50211788 244.54705298 -223.8203125 247.0703125 C-228.04766751 251.67349765 -232.26526083 256.28413776 -236.4375 260.9375 C-240.89643915 265.90512383 -245.42438331 270.80683252 -249.95703125 275.70703125 C-252.83394762 278.81782841 -255.70049617 281.93798345 -258.5625 285.0625 C-259.01222168 285.55347168 -259.46194336 286.04444336 -259.92529297 286.55029297 C-260.83062602 287.53884515 -261.73589963 288.52745177 -262.64111328 289.51611328 C-264.46818246 291.51124919 -266.29625602 293.50546309 -268.12451172 295.49951172 C-269.03653136 296.49441281 -269.94831786 297.48952768 -270.85986328 298.48486328 C-273.23373484 301.07647441 -275.61173161 303.66412827 -277.99609375 306.24609375 C-278.48851562 306.78041016 -278.9809375 307.31472656 -279.48828125 307.86523438 C-280.85439783 309.34734199 -282.2220707 310.82801468 -283.58984375 312.30859375 C-285.82579017 314.80546099 -287.93545105 317.36063464 -290 320 C-292.88699029 319.66490291 -293.90744277 319.09778223 -295.9375 316.953125 C-296.618125 316.06109375 -297.29875 315.1690625 -298 314.25 C-301.49759034 309.80898069 -305.12688151 305.61614732 -309 301.5 C-313.45992086 296.74027608 -317.63806889 291.83520893 -321.72265625 286.74609375 C-324.21826469 283.73680948 -326.83765143 280.86061346 -329.5 278 C-333.76920779 273.41242561 -337.75758739 268.66556996 -341.6875 263.78125 C-344.1997101 260.75980812 -346.82400827 257.87558227 -349.5 255 C-353.76918152 250.41239887 -357.75758517 245.66557272 -361.6875 240.78125 C-364.1997101 237.75980812 -366.82400827 234.87558227 -369.5 232 C-372.9741715 228.26670522 -376.30068494 224.47629157 -379.5 220.5 C-383.60300303 215.40076422 -387.95916453 210.60662632 -392.421875 205.82421875 C-395.04580097 202.94982712 -397.51772476 199.99660889 -400 197 C-400.87354657 216.79290379 -401.03845438 236.54846118 -400.87139857 256.35883939 C-400.83178238 261.16090882 -400.80587126 265.96290644 -400.78860474 270.7651062 C-400.78483426 271.8007369 -400.78483426 271.8007369 -400.78098762 272.85728943 C-400.77107625 275.67259849 -400.76171783 278.48790749 -400.75379539 281.30322289 C-400.73145158 289.21411352 -400.68527158 297.12329495 -400.5715332 305.03344727 C-400.47979293 311.42537993 -400.43826553 317.81547002 -400.45439845 324.20807046 C-400.46105843 327.55968103 -400.43640404 330.90349866 -400.36514854 334.25487709 C-399.90206945 357.05466196 -399.90206945 357.05466196 -406.92767811 364.66662121 C-409.30604017 366.87723697 -411.77206086 368.87315867 -414.39879799 370.77997398 C-416.53052715 372.4042319 -418.19044158 374.300334 -419.875 376.375 C-422.75494657 379.77594193 -425.86098002 382.87846977 -429.03515625 386.00390625 C-430.92230744 387.92107177 -432.68685375 389.89575322 -434.4375 391.9375 C-437.00665271 394.92801716 -439.69317256 397.73116684 -442.5 400.5 C-445.9019628 403.85599033 -449.06607016 407.32484832 -452.171875 410.953125 C-454.9688328 414.08476152 -457.97452638 416.99621795 -460.984375 419.921875 C-463.04159392 421.94385057 -463.04159392 421.94385057 -464.640625 424.265625 C-465.08921875 424.83796875 -465.5378125 425.4103125 -466 426 C-466.66 426 -467.32 426 -468 426 C-468 315.12 -468 204.24 -468 90 C-444.9 90 -421.8 90 -398 90 C-392.27386274 96.29875098 -386.79036029 102.40836345 -381.47265625 108.9921875 C-378.58319725 112.50701125 -375.61321307 115.94413715 -372.625 119.375 C-368.07476541 124.59985633 -363.56319765 129.85315639 -359.09863281 135.15136719 C-355.71518052 139.16384184 -352.29899816 143.14710388 -348.875 147.125 C-345.38176144 151.18620876 -341.93551293 155.27518971 -338.5625 159.4375 C-334.46020051 164.48933717 -330.21298022 169.4030598 -325.93994141 174.31005859 C-321.95364274 178.8901847 -318.01282426 183.50550779 -314.10083008 188.14916992 C-311.20963391 191.57855639 -308.29486744 194.98637969 -305.36645508 198.3840332 C-300.10680849 204.48819807 -294.98305687 210.66663211 -290 217 C-283.47648527 212.78063546 -277.27149555 208.24808651 -271.125 203.5 C-264.30034275 198.26213585 -257.44256862 193.08057142 -250.5 188 C-242.87448068 182.4152924 -235.34715927 176.71118285 -227.8425293 170.96533203 C-222.04619071 166.53576655 -216.20046074 162.18184443 -210.3125 157.875 C-204.12743929 153.3488463 -198.03095953 148.72949347 -192 144 C-185.19759567 138.6655376 -178.29340214 133.49406186 -171.31640625 128.390625 C-165.32248822 123.99768833 -159.40040656 119.51759194 -153.5 115 C-146.88061574 109.93337075 -140.2249262 104.92570424 -133.5 100 C-124.82351464 93.64393818 -116.26688928 87.13779594 -107.72265625 80.60546875 C-103.25488956 77.19007431 -98.75975902 73.81418704 -94.25390625 70.44921875 C-90.70336496 67.78660107 -87.18188305 65.08607918 -83.65625 62.390625 C-75.2181676 55.94082638 -66.73396325 49.56609608 -58.16577148 43.2902832 C-52.22438594 38.92808946 -46.35311497 34.47976438 -40.5 30 C-27.15503837 19.78966159 -13.61257682 9.8499994 0 0 Z " fill="#ED1F24" transform="translate(468,0)"/>
<path d="M0 0 C74.91 0 149.82 0 227 0 C227 17.16 227 34.32 227 52 C172.55 52 118.1 52 62 52 C62 73.78 62 95.56 62 118 C112.82 118 163.64 118 216 118 C216 135.16 216 152.32 216 170 C165.18 170 114.36 170 62 170 C62 197.06 62 224.12 62 252 C118.43 252 174.86 252 233 252 C233 269.16 233 286.32 233 304 C156.11 304 79.22 304 0 304 C0 203.68 0 103.36 0 0 Z " fill="#FFFFFF" transform="translate(1731,88)"/>
<path d="M0 0 C74.91 0 149.82 0 227 0 C227 17.16 227 34.32 227 52 C172.55 52 118.1 52 62 52 C62 73.78 62 95.56 62 118 C112.82 118 163.64 118 216 118 C216 135.16 216 152.32 216 170 C165.18 170 114.36 170 62 170 C62 197.06 62 224.12 62 252 C118.43 252 174.86 252 233 252 C233 269.16 233 286.32 233 304 C156.11 304 79.22 304 0 304 C0 203.68 0 103.36 0 0 Z " fill="#FFFFFF" transform="translate(1446,88)"/>
<path d="M0 0 C20.79 0 41.58 0 63 0 C63.029729 8.96220703 63.029729 8.96220703 63.06005859 18.10546875 C63.12703704 37.87078035 63.20457777 57.63604017 63.28752708 77.40129089 C63.33755049 89.38209774 63.38399423 101.3628981 63.421875 113.34375 C63.45491883 123.7918675 63.49481764 134.23993305 63.54279006 144.68799305 C63.56793236 150.21503769 63.58974922 155.74204842 63.60334396 161.26913452 C63.61627648 166.48281317 63.63844876 171.69637478 63.66738319 176.9099884 C63.67637228 178.81252264 63.68212863 180.71507568 63.68421364 182.61763 C63.71052472 202.99908427 63.88517422 224.86279397 79.2890625 240.29296875 C93.8752272 252.63332714 112.79857196 256.03088574 131.4453125 254.75 C147.2454841 253.32926655 160.743538 248.96264092 171.2109375 236.47265625 C177.07888636 228.36258719 179.05215672 219.8287227 180 210 C180.12208029 208.75258892 180.12208029 208.75258892 180.24662685 207.47997761 C181.1275832 197.46325958 181.17358619 187.48661819 181.20532227 177.44018555 C181.21492015 175.49740398 181.2249313 173.55462442 181.23532104 171.61184692 C181.26216938 166.37519339 181.28328657 161.13853103 181.30332303 155.9018476 C181.32530759 150.41524667 181.35263482 144.92867232 181.37937927 139.4420929 C181.42913859 129.06920361 181.47413906 118.69629944 181.51740164 108.32338125 C181.56691797 96.50708386 181.62178236 84.69081316 181.67708123 72.87454164 C181.79064372 48.58305151 181.89683221 24.29153665 182 0 C202.79 0 223.58 0 245 0 C245.04541295 23.68145578 245.08214239 47.36287547 245.10362434 71.04436398 C245.11387062 82.04383355 245.12780117 93.04327385 245.15087891 104.04272461 C245.17101916 113.64679997 245.1837645 123.25085411 245.18817699 132.85495001 C245.19075005 137.92481564 245.19665284 142.9946206 245.21146011 148.06446648 C245.49230962 248.23813563 245.49230962 248.23813563 220 277 C219.47019531 277.61230469 218.94039062 278.22460938 218.39453125 278.85546875 C198.36364017 300.46904752 167.21383264 307.43009539 139 309 C101.39864309 310.25207722 62.32218192 308.413061 32.6875 282.5625 C31.10609716 281.06133201 29.54311682 279.54049692 28 278 C27.23042969 277.24203125 26.46085938 276.4840625 25.66796875 275.703125 C-0.63607983 248.27880178 -0.19007909 206.25682608 -0.11352539 170.62866211 C-0.11324251 168.75425722 -0.11340322 166.87985222 -0.1139679 165.00544739 C-0.11425192 159.97354675 -0.10841963 154.94167052 -0.10139394 149.9097755 C-0.09509409 144.63008295 -0.0945514 139.35038969 -0.09336853 134.07069397 C-0.09027461 124.0981184 -0.08208765 114.12555395 -0.07201904 104.15298325 C-0.06079732 92.7888406 -0.05533226 81.42469739 -0.05032361 70.06055057 C-0.03990318 46.70702616 -0.02158212 23.35351695 0 0 Z " fill="#FFFFFF" transform="translate(496,88)"/>
<path d="M0 0 C3.58787194 3.07531881 4.94900084 6.23957719 5.625 10.875 C5.04944625 14.82165429 3.75424431 16.83543437 1.1875 19.875 C-0.78638176 20.92561449 -2.78444209 21.93320325 -4.8125 22.875 C-4.80826941 23.79495974 -4.80826941 23.79495974 -4.80395335 24.73350453 C-4.63832967 61.10882158 -4.54065584 97.48373428 -4.53083299 133.85943897 C-4.52959413 138.23018613 -4.52778938 142.60093289 -4.52563477 146.97167969 C-4.52500563 148.27684737 -4.52500563 148.27684737 -4.52436379 149.60838208 C-4.5162301 163.68461116 -4.46228733 177.76030907 -4.39131906 191.83634558 C-4.31948472 206.28712411 -4.29710142 220.73737375 -4.32031661 235.18831515 C-4.33308504 244.10087133 -4.30760128 253.01161362 -4.23268137 261.92387113 C-4.18495797 268.04113527 -4.18540934 274.15723387 -4.22315188 280.27456251 C-4.24350608 283.80123264 -4.24318973 287.32458454 -4.18545341 290.850914 C-3.84309231 313.06372877 -3.84309231 313.06372877 -8.66422462 319.14363861 C-11.73370776 322.28318629 -15.0969786 324.55700775 -18.8125 326.875 C-20.23323303 328.07529956 -21.63691965 329.29710941 -23 330.5625 C-23.61230469 331.09230469 -24.22460938 331.62210937 -24.85546875 332.16796875 C-27.1980915 334.21133431 -29.50523422 336.29180859 -31.8125 338.375 C-37.13584693 343.17407792 -42.50113339 347.9157795 -47.96484375 352.5546875 C-55.08792239 358.61040575 -62.04628326 364.79923816 -68.890625 371.16796875 C-78.22759434 379.81839623 -78.22759434 379.81839623 -82.8125 382.875 C-85.5 382.5 -85.5 382.5 -87.8125 381.875 C-88.84071573 365.98370505 -89.11483815 350.08946393 -89.34472656 334.17016602 C-89.39486993 330.78265775 -89.45089429 327.3952453 -89.50585938 324.0078125 C-89.59104141 318.75370702 -89.65782119 313.49962136 -89.71362305 308.24511719 C-89.76535268 303.52900263 -89.87067391 298.82007209 -90.03051758 294.10644531 C-90.08037385 292.06055011 -90.13010532 290.01465186 -90.1796875 287.96875 C-90.22360123 287.06529846 -90.26751495 286.16184692 -90.3127594 285.23101807 C-90.48757816 275.49506474 -85.04233474 269.75600311 -78.8125 262.875 C-77.71107657 259.57072971 -77.70517732 257.16971721 -77.73071289 253.69116211 C-77.74050926 251.77919289 -77.74050926 251.77919289 -77.75050354 249.82859802 C-77.75624453 249.1480731 -77.76198551 248.46754818 -77.76790047 247.76640129 C-77.78529054 245.63589157 -77.79558917 243.50545681 -77.80381775 241.37489319 C-77.82827699 235.31813466 -77.86393793 229.26147757 -77.90844727 223.20483398 C-77.93518476 219.49909188 -77.95225599 215.7934078 -77.96331596 212.08758736 C-77.96953529 210.67413749 -77.97955245 209.26069916 -77.99339485 207.84730339 C-78.01254688 205.87475052 -78.01843973 203.90208224 -78.02368164 201.92944336 C-78.03113907 200.80598007 -78.0385965 199.68251678 -78.04627991 198.52500916 C-77.8125 195.875 -77.8125 195.875 -75.8125 193.875 C-73.3125 193.625 -73.3125 193.625 -70.8125 193.875 C-68.04834391 196.63915609 -68.52954503 198.29604282 -68.47436523 202.16967773 C-68.46282913 202.81554337 -68.45129303 203.461409 -68.43940735 204.12684631 C-68.40501462 206.27078664 -68.38657146 208.41443757 -68.37109375 210.55859375 C-68.36419085 211.29324419 -68.35728794 212.02789463 -68.35017586 212.78480721 C-68.31428657 216.6813288 -68.2907846 220.57770489 -68.27709961 224.47436523 C-68.26064194 228.47600262 -68.20237227 232.47584417 -68.13395596 236.47688198 C-68.08886153 239.57157695 -68.07558191 242.66585571 -68.07048225 245.76085091 C-68.0626474 247.23393776 -68.04318344 248.70701542 -68.01125908 250.17977715 C-67.78598897 261.31716534 -70.14476599 268.16199195 -77.36927795 276.71888733 C-81.52408237 281.84289371 -81.48262122 286.31262982 -81.3359375 292.7734375 C-81.33159698 293.82985443 -81.32725647 294.88627136 -81.32278442 295.97470093 C-81.30219967 299.40051153 -81.24554283 302.82463722 -81.1875 306.25 C-81.1654825 308.59926737 -81.14530766 310.94855272 -81.12695312 313.29785156 C-80.96116838 331.16185276 -80.55590216 349.02543953 -79.8125 366.875 C-74.50818276 362.33913402 -74.50818276 362.33913402 -69.25 357.75 C-66.72116518 355.52932106 -64.1767208 353.32897217 -61.61328125 351.1484375 C-55.86105759 346.25253453 -50.1594133 341.32945326 -44.625 336.1875 C-40.95704845 332.78033763 -37.21252411 329.51622113 -33.3125 326.375 C-29.14906848 323.01876439 -25.13580126 319.54144524 -21.1875 315.9375 C-20.66607422 315.46441406 -20.14464844 314.99132812 -19.60742188 314.50390625 C-15.93682491 311.30588258 -15.93682491 311.30588258 -14.6883015 306.81841075 C-14.68868122 305.96252113 -14.68906094 305.10663151 -14.68945217 304.22480583 C-14.68746112 303.23850618 -14.68547007 302.25220653 -14.68341869 301.23601902 C-14.68778795 299.59888641 -14.68778795 299.59888641 -14.69224548 297.92868042 C-14.69139106 296.7754098 -14.69053663 295.62213919 -14.68965632 294.43392098 C-14.68828972 291.22318097 -14.69143123 288.01248093 -14.69643438 284.80174565 C-14.70074017 281.34298911 -14.69929236 277.88423454 -14.6985321 274.42547607 C-14.69800695 268.42974273 -14.70115285 262.43402025 -14.70676994 256.43828964 C-14.71488611 247.76939767 -14.71750028 239.10051097 -14.71875793 230.43161561 C-14.72094827 216.36798164 -14.72760786 202.30435347 -14.73706055 188.24072266 C-14.74623514 174.57666045 -14.75331574 160.91259982 -14.75756836 147.24853516 C-14.75783108 146.40672785 -14.75809381 145.56492054 -14.75836449 144.69760393 C-14.7596695 140.47463711 -14.76093321 136.25167028 -14.76217639 132.02870345 C-14.77254843 96.97746484 -14.79016625 61.92623295 -14.8125 26.875 C-19.07564139 28.26995247 -21.53071269 30.22044408 -24.68455219 33.38070202 C-25.15053903 33.84352692 -25.61652587 34.30635182 -26.09663352 34.78320172 C-27.65897565 36.33859617 -29.21036187 37.90447613 -30.76203918 39.47050476 C-31.89020637 40.59807987 -33.01903446 41.72499406 -34.14846629 42.85130244 C-37.25252825 45.95059062 -40.34714585 49.05916252 -43.44033492 52.1692971 C-46.77718913 55.52114587 -50.1227072 58.8643269 -53.46720886 62.20854187 C-59.26309217 68.00626421 -65.05350486 73.80940433 -70.84031105 79.61618614 C-79.21529032 88.01996993 -87.59901581 96.41498385 -95.98499998 104.80778442 C-109.60089515 118.4351297 -123.21044325 132.06879504 -136.81567383 145.70678711 C-150.01431982 158.93717482 -163.21466509 172.16586141 -176.41821289 185.39135742 C-177.23081284 186.20531094 -178.04341278 187.01926446 -178.88063697 187.85788324 C-187.75510844 196.74700047 -196.63028442 205.63541383 -205.50630474 214.5229845 C-206.6771423 215.69534964 -206.6771423 215.69534964 -207.87163314 216.89139891 C-210.9924673 220.01628536 -214.11330941 223.14116386 -217.23424193 226.26595209 C-226.36697714 235.4100045 -235.49751469 244.55623828 -244.62408652 253.70644251 C-250.35207069 259.44915244 -256.08168681 265.19023043 -261.81257776 270.93003955 C-265.11813936 274.24091233 -268.42283126 277.5526419 -271.72528458 280.8666153 C-274.751256 283.90313664 -277.77955258 286.93731918 -280.80966803 289.96970508 C-281.90273997 291.06443073 -282.99495656 292.16001129 -284.08620641 293.25655326 C-289.81758313 299.01480897 -295.61852646 304.61235121 -301.8125 309.875 C-303.48302462 311.37070227 -305.15030832 312.87004266 -306.8125 314.375 C-312.66518529 319.64688446 -318.5209936 324.89334317 -324.625 329.875 C-325.35332031 330.473125 -326.08164062 331.07125 -326.83203125 331.6875 C-327.48558594 332.079375 -328.13914062 332.47125 -328.8125 332.875 C-329.8025 332.545 -330.7925 332.215 -331.8125 331.875 C-331.39321041 327.05531006 -329.14065204 324.64789798 -325.81683254 321.40948772 C-325.28890611 320.87934269 -324.76097967 320.34919765 -324.21705547 319.80298761 C-322.43658215 318.01993668 -320.64214553 316.25163066 -318.84751892 314.48283386 C-317.55885252 313.19815015 -316.27107585 311.91257342 -314.98411661 310.62617952 C-311.43796333 307.08662322 -307.87950015 303.5596694 -304.31902158 300.03453147 C-300.48415241 296.23332053 -296.66087148 292.42048785 -292.83634949 288.60887146 C-286.20540801 282.00314791 -279.56763617 275.40435299 -272.92564201 268.80974388 C-263.31836757 259.27029287 -253.72588195 249.71607761 -244.1377619 240.15737871 C-228.57677783 224.64420473 -213.00981402 209.13704902 -197.4362793 193.63647461 C-196.50377299 192.70832879 -195.57126668 191.78018297 -194.61050261 190.82391153 C-184.20517346 180.46767742 -173.79737701 170.11393172 -163.38555908 159.76422119 C-162.44949577 158.83373569 -161.51343247 157.90325018 -160.5490036 156.94456815 C-158.66102 155.067858 -156.77303382 153.19115044 -154.88504506 151.31444547 C-153.95223556 150.38720923 -153.01942606 149.45997298 -152.05834961 148.50463867 C-151.12666971 147.57853289 -150.19498982 146.65242712 -149.23507719 145.69825753 C-133.71229076 130.26754416 -118.20490361 114.82146187 -102.71011168 99.36263829 C-93.14669559 89.82266327 -83.57042087 80.29596221 -73.97736896 70.78578673 C-67.40754317 64.27071062 -60.85214015 57.74135734 -54.30801194 51.20047017 C-50.52883288 47.4241129 -46.74331655 43.65471301 -42.94017029 39.90248108 C-39.4607971 36.46944571 -36.00022518 33.01857602 -32.55386633 29.55240837 C-31.3018232 28.29975848 -30.04292648 27.05391518 -28.7767266 25.81557693 C-27.05953741 24.13424997 -25.36872495 22.43016361 -23.68232632 20.7180357 C-22.93192142 20.00087005 -22.93192142 20.00087005 -22.16635683 19.26921621 C-19.45348486 16.45344576 -18.54656852 14.53257471 -18.61751086 10.72074777 C-18.68185727 9.45165101 -18.74620369 8.18255424 -18.8125 6.875 C-17.20326503 3.77147542 -15.80902733 1.65798576 -13.0625 -0.5 C-8.43949199 -1.78416889 -4.39955974 -1.7598239 0 0 Z " fill="#FFFFFF" transform="translate(458.8125,83.125)"/>
<path d="M0 0 C6.27 0 12.54 0 19 0 C22.68519632 3.7292695 23.95439617 5.49831837 26 10 C27.13421072 11.83236362 28.29241821 13.65006411 29.47265625 15.453125 C30.67171541 17.38390067 31.86823933 19.31625261 33.0625 21.25 C34.38467819 23.37806316 35.70761163 25.50565725 37.03125 27.6328125 C37.69382812 28.69790039 38.35640625 29.76298828 39.0390625 30.86035156 C42.01968104 35.63260684 45.03730915 40.3809118 48.0625 45.125 C48.63194336 46.01799805 49.20138672 46.91099609 49.78808594 47.83105469 C50.93987281 49.63654084 52.0918911 51.44187939 53.24414062 53.24707031 C55.05588041 56.08761227 56.86436806 58.93020039 58.671875 61.7734375 C59.281521 62.73233887 59.89116699 63.69124023 60.51928711 64.67919922 C61.66089173 66.47499225 62.80234697 68.27088027 63.94360352 70.06689453 C68.60413814 77.3943339 73.30385456 84.69488487 78 92 C78.33 61.64 78.66 31.28 79 0 C83.62 0 88.24 0 93 0 C93 37.95 93 75.9 93 115 C75 115 75 115 71.1875 111.58984375 C70.01635742 109.36425781 70.01635742 109.36425781 69 106.9375 C68.14532169 105.26258637 67.2871938 103.58942892 66.42578125 101.91796875 C66.02182129 101.08056152 65.61786133 100.2431543 65.20166016 99.38037109 C63.47667377 95.963342 61.37522259 92.88292079 59.1875 89.75 C55.13992062 83.7772735 51.2397514 77.71736239 47.375 71.625 C46.79177979 70.7057373 46.20855957 69.78647461 45.60766602 68.83935547 C44.38349254 66.90926452 43.15945648 64.97908641 41.93554688 63.04882812 C38.50879913 57.65109531 35.06812012 52.26229918 31.625 46.875 C30.98353027 45.86904785 30.34206055 44.8630957 29.68115234 43.82666016 C25.20368445 36.82332264 20.61287967 29.91931951 16 23 C15.67 53.36 15.34 83.72 15 115 C10.05 115 5.1 115 0 115 C0 77.05 0 39.1 0 0 Z " fill="#FFFFFF" transform="translate(1776,462)"/>
<path d="M0 0 C11.85156296 9.75305687 18.07462015 24.13513501 19.56640625 39.21875 C20.71017323 57.42556219 18.65087619 76.64774048 6.5078125 91.125 C-4.11392535 102.58023438 -15.66509405 108.36477338 -31.36328125 109.50390625 C-46.8472061 110.02818422 -60.11697041 106.47806113 -72.18359375 96.53125 C-83.64315916 85.76868856 -89.04107539 71.00141535 -89.65625 55.56640625 C-90.12936428 36.38778945 -86.92152335 18.71324151 -73.43359375 4.21875 C-54.62020867 -15.51988353 -21.23192464 -15.54054195 0 0 Z M-62.32421875 13.94921875 C-72.66412253 25.0741893 -74.97117716 39.02740054 -74.70703125 53.69140625 C-74.17059206 66.16494513 -69.9025583 77.47644892 -61.21484375 86.53125 C-53.38012946 93.45021846 -43.46344825 97.06349511 -32.96484375 96.53515625 C-20.92342609 95.02997904 -11.77685144 90.96756913 -4 81.4765625 C5.61519562 67.6172531 6.21811269 50.63608219 3.44140625 34.46875 C0.97916651 23.4692117 -4.07562387 13.94347381 -13.71484375 7.75390625 C-30.3012424 -1.30037782 -48.6772399 1.26694013 -62.32421875 13.94921875 Z " fill="#FFFFFF" transform="translate(1736.43359375,469.78125)"/>
<path d="M0 0 C11.85156296 9.75305687 18.07462015 24.13513501 19.56640625 39.21875 C20.71017323 57.42556219 18.65087619 76.64774048 6.5078125 91.125 C-4.11392535 102.58023438 -15.66509405 108.36477338 -31.36328125 109.50390625 C-46.8472061 110.02818422 -60.11697041 106.47806113 -72.18359375 96.53125 C-83.64315916 85.76868856 -89.04107539 71.00141535 -89.65625 55.56640625 C-90.12936428 36.38778945 -86.92152335 18.71324151 -73.43359375 4.21875 C-54.62020867 -15.51988353 -21.23192464 -15.54054195 0 0 Z M-62.32421875 13.94921875 C-72.66412253 25.0741893 -74.97117716 39.02740054 -74.70703125 53.69140625 C-74.17059206 66.16494513 -69.9025583 77.47644892 -61.21484375 86.53125 C-53.38012946 93.45021846 -43.46344825 97.06349511 -32.96484375 96.53515625 C-20.92342609 95.02997904 -11.77685144 90.96756913 -4 81.4765625 C5.61519562 67.6172531 6.21811269 50.63608219 3.44140625 34.46875 C0.97916651 23.4692117 -4.07562387 13.94347381 -13.71484375 7.75390625 C-30.3012424 -1.30037782 -48.6772399 1.26694013 -62.32421875 13.94921875 Z " fill="#FFFFFF" transform="translate(1296.43359375,469.78125)"/>
<path d="M0 0 C4.62 0 9.24 0 14 0 C14.01981934 2.14854492 14.03963867 4.29708984 14.06005859 6.51074219 C14.12730509 13.65136453 14.20493713 20.79184768 14.28752708 27.9323082 C14.33723289 32.2567608 14.38356266 36.58119197 14.421875 40.90576172 C14.45905586 45.08802254 14.50549919 49.27009184 14.55806351 53.45218658 C14.57643492 55.03873547 14.59160472 56.62532513 14.60334396 58.21193695 C14.51648093 78.697788 14.51648093 78.697788 23.37890625 96.625 C30.48635935 103.13209603 38.25186984 103.48977024 47.4296875 103.2890625 C53.95560982 102.76070555 59.40221845 100.84631028 64 96 C71.7588417 84.11363495 71.31427758 70.31935997 71.4140625 56.640625 C71.43281507 54.99866813 71.45239137 53.35672048 71.4727478 51.71478271 C71.52364386 47.43405647 71.56349447 43.15329913 71.60089111 38.87243652 C71.64120047 34.48779885 71.69216862 30.10328576 71.7421875 25.71875 C71.83844192 17.145913 71.92201732 8.57302269 72 0 C76.62 0 81.24 0 86 0 C86.06812538 9.92813915 86.12301608 19.85611978 86.15543652 29.78444099 C86.17100676 34.39593404 86.19208449 39.00725709 86.22631836 43.61865234 C86.25922342 48.0796256 86.27691775 52.54043669 86.28463173 57.00152206 C86.29011993 58.6925397 86.30083469 60.38354977 86.31719017 62.07449722 C86.46164372 77.64676177 85.60123911 93.94874357 74.9609375 106.3828125 C65.65718313 115.29206138 55.26380223 117.18727189 42.875 117.25 C41.87984375 117.270625 40.8846875 117.29125 39.859375 117.3125 C29.19535117 117.36818681 20.22679666 114.97289828 12 108 C2.81925935 98.85554687 -0.0988898 86.73232902 -0.12442017 74.05215454 C-0.12082489 73.32926239 -0.11722961 72.60637024 -0.11352539 71.86157227 C-0.11367142 71.08026443 -0.11381744 70.2989566 -0.1139679 69.49397278 C-0.11327627 66.9347548 -0.10551927 64.37561138 -0.09765625 61.81640625 C-0.0957894 60.03279154 -0.09436676 58.24917632 -0.09336853 56.46556091 C-0.08956435 51.78848842 -0.07975213 47.11144735 -0.06866455 42.43438721 C-0.05840516 37.65483017 -0.05386123 32.87526802 -0.04882812 28.09570312 C-0.03812786 18.730455 -0.02107682 9.36523012 0 0 Z " fill="#FFFFFF" transform="translate(1412,462)"/>
<path d="M0 0 C0 5.28 0 10.56 0 16 C-3.80127847 15.23974431 -6.51189727 14.4462865 -10 13 C-20.13191654 9.26360009 -31.26927903 8.60956435 -41.2890625 13.00390625 C-44.98523788 15.04016287 -46.80028411 16.67924418 -49.0625 20.3125 C-50.50658476 25.99256672 -50.0286669 29.85694395 -47.5 35.125 C-41.07989879 42.50811639 -31.44167011 46.4926111 -22.81640625 50.76757812 C-11.24165483 56.65693402 -0.50671069 64.38911658 4 77 C5.14742958 86.38023685 4.90484404 95.24630916 -1 103 C-9.11797932 112.12390285 -19.75975825 115.49926036 -31.6640625 116.22265625 C-43.84318361 116.60512865 -54.72743873 114.83109769 -66 110 C-66 104.39 -66 98.78 -66 93 C-63.39944322 94.04022271 -60.80074302 95.08793236 -58.23828125 96.21875 C-46.00255202 101.57698656 -34.18908438 104.2615188 -21.19921875 99.91796875 C-16.60409661 97.99993375 -13.88600686 95.55921659 -12 91 C-11.2206841 85.59009779 -11.37091013 80.31383197 -14.49560547 75.63427734 C-21.3383217 68.20079106 -31.51976058 63.98891543 -40.43359375 59.62695312 C-51.03068167 54.28573633 -60.07048343 48.15053009 -65 37 C-67.23006885 28.12076881 -66.33850997 19.84239244 -61.78125 11.8671875 C-55.14249942 2.16723526 -45.84187743 -1.34114131 -34.75 -3.6875 C-22.86288801 -4.67809267 -11.17238736 -4.46895495 0 0 Z " fill="#FFFFFF" transform="translate(1959,463)"/>
<path d="M0 0 C0 5.28 0 10.56 0 16 C-3.80127847 15.23974431 -6.51189727 14.4462865 -10 13 C-20.13191654 9.26360009 -31.26927903 8.60956435 -41.2890625 13.00390625 C-44.98523788 15.04016287 -46.80028411 16.67924418 -49.0625 20.3125 C-50.50658476 25.99256672 -50.0286669 29.85694395 -47.5 35.125 C-41.07989879 42.50811639 -31.44167011 46.4926111 -22.81640625 50.76757812 C-11.24165483 56.65693402 -0.50671069 64.38911658 4 77 C5.14742958 86.38023685 4.90484404 95.24630916 -1 103 C-9.11797932 112.12390285 -19.75975825 115.49926036 -31.6640625 116.22265625 C-43.84318361 116.60512865 -54.72743873 114.83109769 -66 110 C-66 104.39 -66 98.78 -66 93 C-63.39944322 94.04022271 -60.80074302 95.08793236 -58.23828125 96.21875 C-46.00255202 101.57698656 -34.18908438 104.2615188 -21.19921875 99.91796875 C-16.60409661 97.99993375 -13.88600686 95.55921659 -12 91 C-11.2206841 85.59009779 -11.37091013 80.31383197 -14.49560547 75.63427734 C-21.3383217 68.20079106 -31.51976058 63.98891543 -40.43359375 59.62695312 C-51.03068167 54.28573633 -60.07048343 48.15053009 -65 37 C-67.23006885 28.12076881 -66.33850997 19.84239244 -61.78125 11.8671875 C-55.14249942 2.16723526 -45.84187743 -1.34114131 -34.75 -3.6875 C-22.86288801 -4.67809267 -11.17238736 -4.46895495 0 0 Z " fill="#FFFFFF" transform="translate(1188,463)"/>
<path d="M0 0 C26.4 0 52.8 0 80 0 C80 4.29 80 8.58 80 13 C69.11 13 58.22 13 47 13 C47 46.66 47 80.32 47 115 C42.38 115 37.76 115 33 115 C33 81.34 33 47.68 33 13 C22.11 13 11.22 13 0 13 C0 8.71 0 4.42 0 0 Z " fill="#FFFFFF" transform="translate(1514,462)"/>
<path d="M0 0 C26.4 0 52.8 0 80 0 C80 4.29 80 8.58 80 13 C69.11 13 58.22 13 47 13 C47 46.66 47 80.32 47 115 C42.38 115 37.76 115 33 115 C33 81.34 33 47.68 33 13 C22.11 13 11.22 13 0 13 C0 8.71 0 4.42 0 0 Z " fill="#FFFFFF" transform="translate(986,462)"/>
<path d="M0 0 C4.81659662 2.45551985 7.28103603 4.84310809 9 10 C9 14.31352253 8.26295003 17.03359663 5.625 20.375 C3 23 3 23 0 24 C-1.58216253 23.89468417 -3.16293294 23.76742451 -4.7421875 23.625 C-8.86644762 23.58907178 -10.79947704 24.09909201 -13.7578125 27 C-14.90801419 28.30942211 -16.02985001 29.64419888 -17.125 31 C-18.32584767 32.38756336 -19.52766296 33.77428993 -20.73046875 35.16015625 C-21.29427246 35.82805176 -21.85807617 36.49594727 -22.43896484 37.18408203 C-24.33164723 39.38579795 -26.34890027 41.42189987 -28.4375 43.4375 C-30.85076567 45.81003545 -33.11268043 48.24087994 -35.3125 50.8125 C-38.66340406 54.71549809 -42.28476894 58.31473994 -45.94360352 61.92407227 C-49.2527742 65.20585199 -52.35428675 68.59682508 -55.359375 72.15625 C-57.66621205 74.74869544 -60.219086 77.05660223 -62.8125 79.359375 C-64.24630144 80.93756879 -64.24630144 80.93756879 -63.703125 82.98828125 C-63.47109375 83.65214844 -63.2390625 84.31601562 -63 85 C-62.63501408 90.0185564 -62.87608503 92.98353789 -66 97 C-67.765625 98.6796875 -67.765625 98.6796875 -70 100 C-72.59375 99.8359375 -72.59375 99.8359375 -75.5 99.375 C-79.76670584 99.23971421 -82.09119415 99.72562255 -85.171875 102.6015625 C-87.82303404 105.40054171 -90.25851465 108.37226709 -92.66748047 111.38037109 C-94.41490434 113.5043011 -96.33108344 115.40743861 -98.3125 117.3125 C-100.76735693 119.72711337 -103.07516957 122.19524554 -105.3125 124.8125 C-108.22250451 128.20195605 -111.32159942 131.36451453 -114.5 134.5 C-118.21187552 138.16195956 -121.72656645 141.91589196 -125.10546875 145.88671875 C-128.44894234 149.6162429 -132.06480946 153.08131021 -135.64453125 156.58203125 C-138.10724266 158.9623308 -138.10724266 158.9623308 -140 162 C-139.979375 163.0725 -139.95875 164.145 -139.9375 165.25 C-140.02199056 170.31943365 -141.33618846 174.08969787 -144.6875 177.9375 C-148.11426375 179.51195902 -151.34346749 179.66746228 -155 179 C-158.44312714 176.8755173 -159.71617547 175.85147359 -161 172 C-161.56216437 167.16170012 -161.45721862 163.85347476 -159.125 159.5 C-157 157 -157 157 -155 156 C-153.61578495 156.10837017 -152.23304232 156.23604343 -150.8515625 156.375 C-146.85994813 156.41333483 -145.02836842 155.69405379 -142.0859375 153 C-140.82469394 151.68959551 -139.58828194 150.35493253 -138.375 149 C-137.39200928 147.95996826 -137.39200928 147.95996826 -136.38916016 146.89892578 C-132.77891519 143.05383876 -129.26628347 139.11906173 -125.8671875 135.0859375 C-122.65444186 131.49680324 -119.18159761 128.1627509 -115.75732422 124.77685547 C-112.31987806 121.36317731 -109.07994187 117.86648045 -105.94921875 114.16796875 C-102.66169939 110.51150935 -99.13151742 107.09170022 -95.6171875 103.65429688 C-89.20823525 97.896791 -89.20823525 97.896791 -86.9375 90.0625 C-86.97101563 89.37929688 -87.00453125 88.69609375 -87.0390625 87.9921875 C-86.97519793 84.73509439 -85.79316824 82.65883567 -84 80 C-80.91565095 77.36923169 -78.7852496 76.97053017 -74.890625 76.9609375 C-68.42247265 76.29634759 -65.09722267 72.01097104 -60.875 67.4375 C-60.11574219 66.65052734 -59.35648437 65.86355469 -58.57421875 65.05273438 C-55.06689294 61.39147258 -51.67054032 57.64875114 -48.3515625 53.81640625 C-45.22346294 50.20591939 -41.91537467 46.83706166 -38.5 43.5 C-34.40218181 39.45331013 -30.44313977 35.38433285 -26.765625 30.9453125 C-25 29 -25 29 -22.359375 26.6796875 C-17.05300044 22.23607863 -17.05300044 22.23607863 -14.46875 16.09375 C-14.52986769 14.19910162 -14.64587722 12.3051948 -14.82421875 10.41796875 C-15 8 -15 8 -13.875 5 C-9.96537008 0.82972809 -5.65406068 -0.82455052 0 0 Z " fill="#FFFFFF" transform="translate(402,201)"/>
<path d="M0 0 C4.95 0 9.9 0 15 0 C15 33.66 15 67.32 15 102 C30.18 102 45.36 102 61 102 C61 106.29 61 110.58 61 115 C40.87 115 20.74 115 0 115 C0 77.05 0 39.1 0 0 Z " fill="#FFFFFF" transform="translate(1337,462)"/>
<path d="M0 0 C12.21 0 24.42 0 37 0 C37 3.96 37 7.92 37 12 C33.37 12 29.74 12 26 12 C26 42.03 26 72.06 26 103 C29.63 103 33.26 103 37 103 C37 106.96 37 110.92 37 115 C24.79 115 12.58 115 0 115 C0 111.04 0 107.08 0 103 C3.63 103 7.26 103 11 103 C11 72.97 11 42.94 11 12 C7.37 12 3.74 12 0 12 C0 8.04 0 4.08 0 0 Z " fill="#FFFFFF" transform="translate(1599,462)"/>
<path d="M0 0 C12.21 0 24.42 0 37 0 C37 3.96 37 7.92 37 12 C33.37 12 29.74 12 26 12 C26 42.03 26 72.06 26 103 C29.63 103 33.26 103 37 103 C37 106.96 37 110.92 37 115 C24.79 115 12.58 115 0 115 C0 111.04 0 107.08 0 103 C3.63 103 7.26 103 11 103 C11 72.97 11 42.94 11 12 C7.37 12 3.74 12 0 12 C0 8.04 0 4.08 0 0 Z " fill="#FFFFFF" transform="translate(943,462)"/>
<path d="M0 0 C3.24900717 1.08300239 3.74706612 1.63159369 5.8125 4.1875 C9.33274028 8.35324276 13.12241478 12.17222515 17 16 C21.18899529 20.14448349 25.22675627 24.3092217 29.03125 28.8125 C32.48559665 32.65066294 36.20856889 36.22720052 39.87792969 39.85839844 C43.50749496 43.46465992 46.96444286 47.13854426 50.26953125 51.046875 C53.97219659 55.22595552 58.01758995 59.08970603 62 63 C61.67 63.66 61.34 64.32 61 65 C52.89931651 58.77158542 45.01899632 52.36615547 37.33227539 45.63256836 C33.21216535 42.02955497 29.01794918 38.55719092 24.71191406 35.17700195 C21.49175306 32.59200235 18.34179263 29.93159844 15.1953125 27.2578125 C14.59726807 26.75064697 13.99922363 26.24348145 13.38305664 25.72094727 C11.92147037 24.48130017 10.46065574 23.24074338 9 22 C9.0207811 22.89820969 9.04156219 23.79641937 9.06297302 24.72184753 C9.24646809 33.23871546 9.35630692 41.75280148 9.38603115 50.27164745 C9.40383899 54.65054609 9.44884976 59.0254459 9.55883789 63.40307617 C10.29875772 94.06870033 10.29875772 94.06870033 4.79370117 101.06860352 C1.81191214 103.97099323 -1.39284555 106.05693854 -5.08784485 107.94203186 C-8.2780077 109.70710341 -10.86242725 112.13806767 -13.5625 114.5625 C-14.62349201 115.46295698 -15.68696629 116.36050491 -16.75390625 117.25390625 C-20.1850578 120.15092901 -23.59344568 123.07412801 -27 126 C-32.01633723 130.3077251 -37.05322153 134.58994615 -42.10546875 138.85546875 C-46.08583601 142.21902365 -50.04643624 145.60499713 -54 149 C-59.00969127 153.30192032 -64.03879825 157.57969429 -69.08569336 161.83789062 C-71.99629351 164.29622487 -74.89653481 166.76585897 -77.78515625 169.25 C-78.73068359 170.06307617 -78.73068359 170.06307617 -79.6953125 170.89257812 C-80.90853247 171.93701331 -82.12082559 172.98252642 -83.33203125 174.02929688 C-86.15186249 176.45711886 -88.98483375 178.81787479 -92 181 C-92.66 180.67 -93.32 180.34 -94 180 C-86.05735512 172.03411653 -78.11196049 164.0709869 -70.16310883 156.11129665 C-66.47165794 152.41464206 -62.78113691 148.71706928 -59.09277344 145.01733398 C-55.52883545 141.4424775 -51.9624127 137.87011697 -48.39430237 134.29942513 C-47.03797352 132.94125812 -45.68252052 131.58221582 -44.32798767 130.22225761 C-28.07146478 113.90325592 -28.07146478 113.90325592 -21.27084351 109.0539093 C-12.04162186 102.40771703 -2.24460988 94.8316331 0.25946045 83.16778564 C2.19157785 70.79055817 1.53298143 58.09515494 1.04284668 45.6272583 C0.8656458 40.47210909 0.82290925 35.31584492 0.76757812 30.15820312 C0.64048443 20.10012166 0.36852112 10.05193701 0 0 Z " fill="#FFFFFF" transform="translate(104,289)"/>
<path d="M0 0 C1.98 0 3.96 0 6 0 C7.22541165 2.45082331 7.10730258 3.99203874 7.07987976 6.73129272 C7.07258347 7.72954575 7.06528717 8.72779877 7.05776978 9.75630188 C7.04474823 10.85556503 7.03172668 11.95482819 7.01831055 13.08740234 C6.99863439 15.4807431 6.97899822 17.87408418 6.95939636 20.26742554 C6.94716726 21.54125469 6.93493816 22.81508385 6.92233849 24.12751389 C6.88656944 28.10253042 6.86055953 32.07752901 6.83930969 36.05264282 C6.8356723 36.72323428 6.83203492 37.39382573 6.8282873 38.08473814 C6.82088125 39.45610664 6.81350878 40.82747533 6.80616915 42.19884419 C6.75617731 51.45471122 6.69795905 60.71030117 6.60229492 69.96582031 C6.53788093 76.20721608 6.49471015 82.44835909 6.47613937 88.69006503 C6.46545399 91.99378701 6.44052184 95.2964292 6.39618492 98.59989548 C6.34808588 102.28498712 6.33704037 105.96844449 6.3347168 109.65380859 C6.3115741 110.74902328 6.2884314 111.84423798 6.2645874 112.97264099 C6.28360471 115.77902404 6.3404718 118.27209446 7 121 C9.79059032 123.64962569 9.79059032 123.64962569 13 125 C15.10863429 128.64218651 15.50962203 131.83808672 15 136 C12.96006092 139.6578218 11.49580738 141.66946174 8 144 C3.20310209 144.69920885 -0.77459282 144.71482085 -5 142.25 C-7.97870059 138.89896183 -8.87462312 137.12839194 -9.375 132.625 C-8.93060645 128.32919568 -7.70408706 126.32216411 -5 123 C-3.515 122.01 -3.515 122.01 -2 121 C-1.54043105 118.82275535 -1.54043105 118.82275535 -1.60800171 116.25524902 C-1.59690872 115.25410568 -1.58581573 114.25296234 -1.5743866 113.22148132 C-1.57739273 112.11907608 -1.58039886 111.01667084 -1.58349609 109.88085938 C-1.57491074 108.72310501 -1.56632538 107.56535065 -1.55747986 106.37251282 C-1.53230045 102.52953106 -1.52803032 98.68680688 -1.5234375 94.84375 C-1.50913843 92.1833701 -1.49357705 89.52302933 -1.47622681 86.8626709 C-1.43766318 80.56463677 -1.41347024 74.26663914 -1.39510214 67.96851683 C-1.36172785 56.68618389 -1.30402328 45.40396055 -1.24111044 34.12175798 C-1.21611421 29.52075405 -1.20119843 24.91977859 -1.18881226 20.31872559 C-1.17860404 17.91886326 -1.16824646 15.51900156 -1.15771484 13.11914062 C-1.15667252 12.01673538 -1.15563019 10.91433014 -1.15455627 9.77851868 C-1.14637627 8.27680367 -1.14637627 8.27680367 -1.13803101 6.74475098 C-1.13547491 5.87164528 -1.13291882 4.99853958 -1.13028526 4.09897614 C-1 2 -1 2 0 0 Z " fill="#FFFFFF" transform="translate(416,258)"/>
<path d="M0 0 C1.99954746 -0.04254356 4.00041636 -0.04080783 6 0 C7 1 7 1 7.12469864 3.01719379 C7.1246571 3.91074668 7.12461555 4.80429956 7.12457275 5.72492981 C7.12841728 7.25811104 7.12841728 7.25811104 7.13233948 8.82226562 C7.13023972 9.95317627 7.12813995 11.08408691 7.12597656 12.24926758 C7.1278447 13.43292404 7.12971283 14.61658051 7.13163757 15.83610535 C7.13565276 18.41652521 7.13771743 20.99694864 7.13809967 23.5773716 C7.13923763 27.65739112 7.15205868 31.73731965 7.16766357 35.81730652 C7.17152285 36.8491584 7.17152285 36.8491584 7.1754601 37.90185577 C7.18072696 39.30882588 7.18601244 40.71579592 7.19131613 42.1227659 C7.22645504 51.6249079 7.25297817 61.12693808 7.25048828 70.62915039 C7.24890027 77.03366816 7.26492288 83.43787709 7.30119491 89.84229583 C7.31967031 93.23293673 7.32898501 96.62306198 7.31671906 100.01374245 C7.30714325 103.79716202 7.32819607 107.5792497 7.35644531 111.36254883 C7.34624863 112.48738678 7.33605194 113.61222473 7.32554626 114.77114868 C7.22651261 120.78441714 7.22651261 120.78441714 10.47772217 125.5398407 C11.31007385 126.02169327 12.14242554 126.50354584 13 127 C14.35416319 131.06248957 14.54273091 134.75222604 14 139 C11.07317073 144.46341463 11.07317073 144.46341463 8 146 C1.01321586 146.57268722 1.01321586 146.57268722 -2.875 144.375 C-6.27772644 140.5719528 -7.0279301 137.5640858 -6.9375 132.5 C-6 129 -6 129 -3.48262024 126.5295105 C0.38769565 122.02247375 -0.29730432 116.68947241 -0.34057617 111.02783203 C-0.33009247 109.82726669 -0.31960876 108.62670135 -0.30880737 107.38975525 C-0.285002 104.11101279 -0.2831188 100.83314904 -0.29110122 97.55435801 C-0.29423247 94.12296366 -0.26917399 90.69177598 -0.24714661 87.26046753 C-0.20973591 80.76888311 -0.19756041 74.27750816 -0.1945222 67.78582656 C-0.18982811 60.39274071 -0.15689365 52.99986426 -0.12162435 45.60687089 C-0.04973056 30.40460478 -0.01317963 15.20243893 0 0 Z " fill="#FFFFFF" transform="translate(340,324)"/>
<path d="M0 0 C3.26972546 2.37485323 5.51732383 5.06929534 6.5078125 9.03125 C6.79940961 14.08559986 5.21861313 17.24495134 2 21 C-1.58508642 23.81685362 -5.64219092 23.27668629 -10 23 C-10.99 22.34 -11.98 21.68 -13 21 C-16.20918993 21.35005691 -18.25890913 22.69171815 -20.80859375 24.59765625 C-21.91267578 25.4165332 -21.91267578 25.4165332 -23.0390625 26.25195312 C-23.83054687 26.84943359 -24.62203125 27.44691406 -25.4375 28.0625 C-26.27152344 28.68447266 -27.10554688 29.30644531 -27.96484375 29.94726562 C-35.06834225 35.25903348 -42.11585139 40.64519074 -49.15991211 46.03540039 C-55.66299293 51.00503501 -62.23323344 55.87484322 -68.8359375 60.7109375 C-74.77673694 65.07278692 -80.64674553 69.52154849 -86.5 74 C-89.11992021 75.99872712 -91.74090151 77.99604696 -94.36279297 79.9921875 C-96.14663404 81.35029794 -97.92948513 82.70970952 -99.71142578 84.0703125 C-102.32093007 86.05706735 -104.94017278 88.03021479 -107.5625 90 C-108.35398438 90.60585937 -109.14546875 91.21171875 -109.9609375 91.8359375 C-110.69699219 92.38507813 -111.43304688 92.93421875 -112.19140625 93.5 C-112.83279541 93.9846875 -113.47418457 94.469375 -114.13500977 94.96875 C-116 96 -116 96 -120 96 C-120.35546875 93.76953125 -120.35546875 93.76953125 -120 91 C-118.11694947 89.28784818 -116.43647139 88.03914466 -114.3125 86.6875 C-113.018215 85.8150698 -111.72672289 84.93848719 -110.4375 84.05859375 C-109.72722656 83.57632324 -109.01695312 83.09405273 -108.28515625 82.59716797 C-104.02443489 79.61921507 -99.93034309 76.4209776 -95.8125 73.25 C-85.20105101 65.11929829 -74.45157522 57.1883919 -63.66601562 49.29101562 C-53.40117862 41.77032886 -43.21213247 34.16238717 -33.11572266 26.41650391 C-19.52103297 16 -19.52103297 16 -17 16 C-17.226875 14.96875 -17.45375 13.9375 -17.6875 12.875 C-18.04604586 8.42903133 -17.42720605 6.68265746 -15 3 C-10.51125586 -1.06792438 -5.76595395 -1.92198465 0 0 Z " fill="#FFFFFF" transform="translate(309,87)"/>
</svg>
